<svg xmlns:xlink="http://www.w3.org/1999/xlink" width="46" height="56" viewBox="0 0 46 56" fill="none" xmlns="http://www.w3.org/2000/svg">
                  <path d="M21.3561 33.784C28.161 33.784 33.6775 28.2534 33.6775 21.4311C33.6775 14.6087 28.161 9.07815 21.3561 9.07815C14.5512 9.07815 9.03467 14.6087 9.03467 21.4311C9.03467 28.2534 14.5512 33.784 21.3561 33.784Z" stroke="#121212" stroke-width="2px" stroke-linejoin="round" fill="none"></path>
                  <path d="M21.3562 28.8429C25.4392 28.8429 28.7491 25.5245 28.7491 21.4311C28.7491 17.3377 25.4392 14.0193 21.3562 14.0193C17.2732 14.0193 13.9634 17.3377 13.9634 21.4311C13.9634 25.5245 17.2732 28.8429 21.3562 28.8429Z" stroke="#121212" stroke-width="2px" stroke-linejoin="round" fill="none"></path>
                  <path d="M28.7501 31.3126V43.6663L21.3561 39.9604L13.9644 43.6663V31.3137" stroke="#121212" stroke-width="2px" stroke-linejoin="round" fill="none"></path>
                  </svg>