<svg xmlns:xlink="http://www.w3.org/1999/xlink" width="48" height="48" viewBox="0 0 46 46" fill="none" xmlns="http://www.w3.org/2000/svg">
                  <path d="M8.17847 21.8096L7.45548 21.3711C7.27219 21.5526 7.09387 22.1282 7.27716 22.3096L8.17847 21.8096ZM21.869 35.6391L21.2772 36.3096C21.4605 36.4911 22.5123 36.4305 22.6956 36.249L21.869 35.6391ZM35.9506 21.6997L36.7772 22.3096C36.8652 22.2225 36.7772 21.823 36.7772 21.6997H35.9506ZM21.869 7.76035V7.08924C21.5099 7.08924 21.3652 7.22253 21.2772 7.30965L21.869 7.76035ZM7.27716 22.3096L21.2772 36.3096L22.7772 34.8096L8.77716 20.8096L7.27716 22.3096ZM22.6956 36.249L36.7772 22.3096L35.6187 21.3711L21.5371 35.3105L22.6956 36.249ZM36.7772 21.6997V9.75168H34.8938L35 22L36.7772 21.6997ZM33.939 7.08924H27.904L21.869 7.08924L21.6785 8.80965H34.0324L33.939 7.08924ZM21.2772 7.30965L7.45548 21.3711L8.77716 22.3096L15.7772 15.3096L22.4484 8.30498L22.5 7.5L21.2772 7.30965ZM36.7772 9.75168C36.7772 8.39529 35.3092 7.08924 33.939 7.08924L34.0324 8.80965C34.8842 8.80965 34.8938 8.90849 34.8938 9.75168H36.7772ZM27.904 17.2524C27.0522 17.2524 26.3617 16.5689 26.3617 15.7257H25.4229C25.4229 17.0821 26.5337 18.1817 27.904 18.1817V17.2524ZM29.4463 15.7257C29.4463 16.5689 28.7558 17.2524 27.904 17.2524V18.1817C29.2743 18.1817 30.3851 17.0821 30.3851 15.7257H29.4463ZM27.904 14.199C28.7558 14.199 29.4463 14.8825 29.4463 15.7257H30.3851C30.3851 14.3693 29.2743 13.2697 27.904 13.2697V14.199ZM27.904 13.2697C26.5337 13.2697 25.4229 14.3693 25.4229 15.7257H26.3617C26.3617 14.8825 27.0522 14.199 27.904 14.199V13.2697Z" fill="#121212"></path>
                  </svg>