<svg xmlns:xlink="http://www.w3.org/1999/xlink" width="116" height="40" viewBox="0 0 116 40" fill="none" xmlns="http://www.w3.org/2000/svg"><path d="M65.7548 10.3376L71.1782 12.4738L65.7548 14.4933V17.3787L75.0431 13.6285V11.321L65.7548 7.5708V10.3376Z" fill="#008FFF"></path><path d="M15.9609 21.0706C13.3635 21.0706 11.4607 22.2244 11.2875 24.6467H14.1728V24.5902C14.2293 23.7828 14.9803 23.2069 15.7887 23.2727C16.885 23.2727 17.4045 23.907 17.4045 25.0043V25.5238H16.087C13.26 25.5238 10.9515 26.3896 10.9515 29.0998V29.2156C10.9515 31.4083 12.5674 32.3889 14.5276 32.3889C15.7397 32.4454 16.8351 31.8694 17.5278 30.9462V32.2167H20.4705V24.9469C20.414 22.1773 18.5083 21.081 15.9703 21.081L15.9609 21.0706ZM15.3266 30.2461C14.2876 30.2461 13.8265 29.7266 13.8265 28.9756V28.8599C13.8265 27.8793 14.5765 27.4765 16.0851 27.4765H17.2972V28.5154C17.3537 29.6692 16.3749 30.247 15.3351 30.247L15.3266 30.2461ZM27.3855 30.1284C25.9428 30.1284 25.1928 29.1478 25.1928 26.9551V26.6088C25.1928 24.4726 26.0586 23.4355 27.3855 23.4355C28.4244 23.4355 29.0013 24.1282 29.1735 25.1671H32.0589C31.8283 22.3401 29.7513 21.0706 27.3271 21.0706C24.4418 21.0706 22.1343 23.0328 22.1343 26.7171V26.8328C22.1343 30.5256 24.327 32.372 27.3271 32.372C30.2699 32.372 31.9431 30.5839 32.1737 28.1597H29.405C29.1745 29.3718 28.4244 30.1219 27.3855 30.1219V30.1284ZM38.6369 30.1284C37.1943 30.1284 36.4442 29.1478 36.4442 26.9551V26.6088C36.4442 24.4726 37.31 23.4355 38.6369 23.4355C39.6759 23.4355 40.2528 24.1282 40.425 25.1671H43.3103C43.0797 22.3401 41.0028 21.0706 38.5786 21.0706C35.6933 21.0706 33.3858 23.0328 33.3858 26.7171V26.8328C33.3858 30.5256 35.5785 32.372 38.5786 32.372C41.5213 32.372 43.1946 30.5839 43.3781 28.1597H40.6659C40.4927 29.3718 39.6853 30.1219 38.6464 30.1219L38.6369 30.1284ZM50.0032 30.1868C48.6857 30.1868 47.867 29.4368 47.7446 27.4746H54.7839V26.1948C54.7839 22.6187 52.5253 21.0593 49.8216 21.0593C46.8789 21.0593 44.6288 23.0789 44.6288 26.7058V26.9363C44.6288 30.5717 46.765 32.4181 49.8799 32.4181C52.7069 32.4181 54.4385 30.8606 54.7265 28.7827H51.8995C51.7837 29.6485 50.9189 30.2828 49.9957 30.1661L50.0032 30.1868ZM49.8301 23.1476C51.0422 23.1476 51.7922 23.8402 51.8496 25.4551H47.8105C48.0411 23.7235 48.9069 23.1965 49.8301 23.1476Z" fill="black"></path><path d="M62.9852 21.0704C61.6019 21.014 60.3314 21.7047 59.6962 22.9168V21.301H56.696V32.1488H59.6962V25.2253C59.7526 24.2447 60.6184 23.4372 61.6 23.4937C62.6963 23.4937 63.2158 24.0706 63.2158 25.3401V32.1488H66.2743V24.8771C66.2743 22.2233 64.9568 21.0686 62.9852 21.0686V21.0704ZM71.9292 28.6865V23.5596H74.0061V21.301H71.9292V18.012L68.929 19.2824V21.301H67.6115V23.5596H68.882V29.0413C68.882 31.234 69.9783 32.3304 72.3451 32.3304C72.922 32.3304 73.4989 32.2739 74.0767 32.0998V29.7236C73.742 29.8372 73.3912 29.8956 73.0378 29.8968C72.3451 29.8968 71.9414 29.4921 71.9414 28.6847L71.9292 28.6865ZM82.3723 28.0513V28.3402C82.3158 29.3208 81.45 30.1283 80.4685 30.0718C79.3721 30.0718 78.911 29.4949 78.911 28.2254V21.301H75.8525V28.6291C75.8525 31.1682 77.2952 32.3793 79.2564 32.3793C79.907 32.4102 80.5527 32.2524 81.1157 31.9248C81.6787 31.5972 82.135 31.1138 82.4297 30.5329V32.1488H85.4882V21.301H82.4297L82.3723 28.0513ZM90.6819 23.2519V21.2323H87.6818V32.0801H90.6819V26.4835C90.6819 24.6955 91.894 24.0602 93.971 24.0602V21.0601C92.4709 21.0601 91.144 21.9259 90.6819 23.2528V23.2519ZM105.048 26.1475C105.048 22.5715 102.79 21.0704 100.086 21.0704C97.1433 21.0704 94.8932 23.09 94.8932 26.7169V26.9474C94.8932 30.5828 97.0295 32.4292 100.144 32.4292C102.971 32.4292 104.645 30.8717 104.991 28.7938H102.164C101.933 29.7161 101.068 30.2939 100.144 30.2365C98.8269 30.2365 98.0082 29.4865 97.8858 27.5243H104.935V26.1409L105.048 26.1475ZM98.0091 25.4549C98.2397 23.6669 99.1055 23.1474 100.086 23.1474C101.298 23.1474 102.048 23.84 102.106 25.4549H98.0091Z" fill="black"></path></svg>