<svg xmlns:xlink="http://www.w3.org/1999/xlink" width="116" height="40" viewBox="0 0 116 40" fill="none" xmlns="http://www.w3.org/2000/svg"><path d="M45.1376 23.6711C43.1928 23.6711 41.6162 22.0944 41.6162 20.1495C41.6162 18.2047 43.1928 16.6281 45.1376 16.6281C47.0824 16.6281 48.6591 18.2047 48.6591 20.1495C48.6591 22.0944 47.0824 23.6711 45.1376 23.6711V23.6711ZM45.164 8.72268C38.8455 8.72268 33.7233 13.8652 33.7233 20.2087C33.7233 26.5522 38.8455 31.6946 45.164 31.6946C51.4826 31.6946 56.6048 26.5522 56.6048 20.2087C56.6048 13.8652 51.4826 8.72268 45.164 8.72268" fill="#5E2791"></path><path d="M65.5232 33.905H58.9664V6.09518H65.5232V33.905Z" fill="#5E2791"></path><path d="M82.2767 13.1795H78.1486L75.4375 15.8808L72.7259 13.1795H68.387V17.7767L71.1084 20.2129L68.387 22.649V27.0691H72.9656L75.4375 24.6064L77.9092 27.0691H82.2767V22.649L79.6632 20.2129L82.2767 17.7767V13.1795Z" fill="#5E2791"></path></svg>