<svg xmlns:xlink="http://www.w3.org/1999/xlink" width="116" height="40" viewBox="0 0 116 40" fill="none" xmlns="http://www.w3.org/2000/svg"><g clip-path="url(#logo-pedidosya-processed_509470527_clip0_2456_3125)" fill="none"><path d="M67.198 14.7894C66.3618 14.7894 65.7186 15.4327 65.7186 16.3333C65.7186 17.0409 66.1688 17.4268 66.8764 17.4268C67.7126 17.4268 68.3558 16.7836 68.3558 15.883C68.3558 15.2397 67.9698 14.7894 67.198 14.7894ZM64.5608 15.1754C64.5608 15.1111 64.4965 15.1111 64.4322 15.1111H62.5668C62.5025 15.1111 62.4382 15.1754 62.3739 15.2397C62.3739 15.2397 61.6663 18.842 61.602 19.035C61.1518 18.1988 60.187 17.6842 59.0935 17.6842C56.8422 17.6842 55.1699 19.4853 55.1699 21.9941C55.1699 24.0525 56.392 25.4677 58.2573 25.4677C59.1578 25.4677 59.9297 25.0818 60.5086 24.4385C60.4442 24.6315 60.4442 24.8245 60.3799 25.0175C60.3799 25.0818 60.3799 25.1461 60.4442 25.1461C60.4442 25.2104 60.5086 25.2104 60.5729 25.2104H62.4382C62.5025 25.2104 62.5668 25.1461 62.6312 25.0818L64.6251 15.2397L64.5608 15.1754ZM60.9588 21.6081C60.8945 21.8654 60.8302 22.1227 60.7015 22.3157C60.5729 22.5087 60.4442 22.766 60.2513 22.8947C60.0583 23.0876 59.8653 23.2163 59.6724 23.2806C59.2865 23.4736 58.7719 23.4736 58.386 23.2806C58.193 23.2163 58.0643 23.0876 57.9357 22.959C57.8071 22.8303 57.7427 22.6373 57.6784 22.4444C57.6141 22.2514 57.6141 22.0584 57.6141 21.8011C57.6141 21.5438 57.6784 21.2222 57.8071 20.9648C57.9357 20.7075 58.0643 20.4502 58.2573 20.2572C58.4503 20.0643 58.6432 19.9356 58.9005 19.807C59.1578 19.6783 59.4151 19.614 59.6724 19.614C59.9297 19.614 60.1226 19.6783 60.3156 19.7426C60.5086 19.807 60.6372 19.9356 60.7658 20.1286C60.8945 20.2572 60.9588 20.4502 61.0231 20.7075C61.0231 21.0935 61.0231 21.3508 60.9588 21.6081V21.6081ZM67.5196 18.5204H65.5899C65.5256 18.5204 65.4613 18.5847 65.397 18.6491L64.1106 25.0818C64.1106 25.1461 64.1106 25.1461 64.1749 25.2104C64.2392 25.2748 64.2392 25.2748 64.3035 25.2748H66.2332C66.2975 25.2748 66.3618 25.2104 66.4261 25.1461L67.7126 18.7134C67.7126 18.6491 67.7126 18.6491 67.6482 18.5847C67.5839 18.5847 67.5196 18.5204 67.5196 18.5204V18.5204ZM39.4755 24.6958C39.6684 23.7952 40.0544 21.8654 40.0544 21.8654H42.3056C44.8785 21.8654 46.5508 20.4502 46.5508 18.2631C46.5508 16.3333 45.2001 15.1111 42.9488 15.1111H39.0895C39.0252 15.1111 38.9609 15.1754 38.8966 15.2397L36.9669 25.0175C36.9669 25.0818 36.9669 25.1461 37.0313 25.1461C37.0313 25.2104 37.0956 25.2104 37.1599 25.2104H38.8966C38.8322 25.2748 39.3468 25.2748 39.4755 24.6958V24.6958ZM42.3699 19.7426H40.4403C40.4403 19.6783 40.9549 17.2982 40.9549 17.1695H42.7559C43.592 17.1695 44.1066 17.5555 44.1066 18.2631C44.0423 19.228 43.4634 19.7426 42.3699 19.7426V19.7426ZM81.7989 17.7485C79.2904 17.7485 77.4251 19.5496 77.4251 22.0584C77.4251 24.1812 78.9045 25.5321 81.1557 25.5321C83.6643 25.5321 85.5296 23.7309 85.5296 21.2222C85.4653 19.0994 84.0502 17.7485 81.7989 17.7485V17.7485ZM81.2844 23.3449C80.3195 23.3449 79.7407 22.8303 79.7407 21.9297C79.7407 20.7719 80.5125 19.9999 81.606 19.9999C82.5708 19.9999 83.1497 20.5146 83.1497 21.4151C83.1497 22.5087 82.3778 23.3449 81.2844 23.3449ZM77.6824 15.1754C77.6824 15.1111 77.618 15.1111 77.5537 15.1111H75.6884C75.6241 15.1111 75.5598 15.1754 75.4954 15.2397C75.4954 15.2397 74.7879 18.842 74.7236 19.035C74.2733 18.1988 73.3085 17.6842 72.2151 17.6842C69.9638 17.6842 68.2915 19.4853 68.2915 21.9941C68.2915 24.0525 69.5136 25.4677 71.3789 25.4677C72.2794 25.4677 73.0512 25.0818 73.6301 24.4385C73.5658 24.6315 73.5658 24.8245 73.5015 25.0175C73.5015 25.0818 73.5015 25.1461 73.5658 25.1461C73.5658 25.2104 73.6301 25.2104 73.6944 25.2104H75.5598C75.6241 25.2104 75.6884 25.1461 75.7527 25.0818L77.7467 15.2397C77.7467 15.2397 77.6824 15.2397 77.6824 15.1754V15.1754ZM74.1447 21.6081C74.0804 21.8654 74.0161 22.1227 73.8874 22.3157C73.7588 22.5087 73.6301 22.766 73.4372 22.8947C73.2442 23.0876 73.0512 23.2163 72.8583 23.2806C72.4723 23.4736 71.9578 23.4736 71.5718 23.2806C71.3789 23.2163 71.2502 23.0876 71.1216 22.959C70.9929 22.8303 70.9286 22.6373 70.8643 22.4444C70.8 22.2514 70.8 22.0584 70.8 21.8011C70.8 21.5438 70.8643 21.2222 70.9929 20.9648C71.1216 20.7075 71.2502 20.4502 71.4432 20.2572C71.6362 20.0643 71.8291 19.9356 72.0864 19.807C72.3437 19.6783 72.601 19.614 72.8583 19.614C73.1156 19.614 73.3085 19.6783 73.5015 19.7426C73.6944 19.807 73.8231 19.9356 73.9517 20.1286C74.0804 20.2572 74.1447 20.4502 74.209 20.7075C74.1447 21.0935 74.1447 21.3508 74.1447 21.6081V21.6081ZM91.6401 18.3274C90.6753 17.8771 89.6462 17.6842 88.7457 17.7485C87.1376 17.8771 86.2371 18.842 86.3658 20.2572C86.4301 21.0935 86.9447 21.7368 87.8452 22.2514L88.8743 22.766C89.2602 22.959 89.3245 23.0876 89.3245 23.2163C89.3245 23.5379 89.0029 23.6023 88.81 23.6023C88.1668 23.6666 87.3949 23.4093 86.5587 22.8947H86.4301C86.3658 22.8947 86.3658 22.959 86.3014 22.959L85.4653 24.3742C85.4009 24.4385 85.4653 24.5672 85.5296 24.5672C86.5587 25.2748 87.7165 25.5964 88.8743 25.4677C90.6753 25.3391 91.5758 24.3742 91.4472 22.8947C91.3828 21.9941 90.9326 21.4151 89.9678 20.9005L89.0673 20.4502C88.5527 20.1286 88.4884 20.0643 88.4884 19.9356C88.4884 19.8713 88.4884 19.614 89.0029 19.5496C89.5175 19.4853 90.1607 19.6783 90.8039 19.9999H90.9326C90.9969 19.9999 90.9969 19.9356 90.9969 19.9356L91.6401 18.4561C91.7688 18.4561 91.7044 18.3274 91.6401 18.3274V18.3274ZM101.739 15.4327C101.739 15.3684 101.674 15.3041 101.61 15.3041H98.9728C98.9084 15.3041 98.8441 15.3041 98.8441 15.3684C98.8441 15.3684 96.2069 19.0994 96.014 19.421C95.9496 19.0994 94.6632 15.4327 94.6632 15.4327C94.6632 15.3684 94.5989 15.3041 94.4703 15.3041H92.1547C92.0904 15.3041 92.026 15.3041 92.026 15.3684C91.9617 15.4327 91.9617 15.497 92.026 15.5614L94.4703 21.7368L93.7627 25.3391C93.7627 25.4034 93.7627 25.4677 93.827 25.4677C93.8914 25.5321 93.8914 25.5321 93.9557 25.5321H95.821C96.0783 25.5321 96.2713 25.3391 96.3356 25.1461L96.9788 21.8011L101.803 15.5614C101.739 15.5614 101.739 15.497 101.739 15.4327V15.4327ZM107.335 18.1988C107.335 18.1344 107.27 18.1344 107.206 18.1344H105.405C105.341 18.1344 105.276 18.1988 105.276 18.2631C105.276 18.2631 105.212 18.5847 105.148 18.842C104.762 18.3274 104.118 18.0701 103.475 18.0058C102.896 17.9415 102.317 18.0701 101.803 18.2631C100.002 18.9707 98.8441 20.7075 98.8441 22.6373C98.8441 24.3099 99.9376 25.4677 101.61 25.5321C102.51 25.5964 103.282 25.2748 103.99 24.6958C103.926 24.8888 103.926 25.0818 103.861 25.2748C103.861 25.3391 103.861 25.3391 103.925 25.4034C103.925 25.4677 103.99 25.4677 104.054 25.4677H105.855C105.919 25.4677 105.984 25.4034 105.984 25.3391L107.399 18.3274C107.335 18.3274 107.335 18.2631 107.335 18.1988V18.1988ZM104.504 21.8011C104.44 22.0584 104.376 22.3157 104.247 22.5087C104.118 22.7017 103.99 22.8947 103.797 23.0876L103.218 23.4736C102.832 23.6666 102.317 23.6666 101.996 23.4736C101.803 23.4093 101.674 23.2806 101.546 23.152C101.417 23.0233 101.353 22.8947 101.288 22.7017C101.224 22.5087 101.224 22.3157 101.224 22.0584C101.224 21.8011 101.288 21.5438 101.417 21.2865C101.546 21.0292 101.674 20.8362 101.867 20.6432C102.06 20.4502 102.253 20.3216 102.446 20.1929C102.703 20.0643 102.896 20.0643 103.154 20.0643C103.347 20.0643 103.604 20.1286 103.733 20.1929C103.925 20.2572 104.054 20.3859 104.183 20.5146C104.311 20.6432 104.376 20.8362 104.44 21.0935C104.569 21.2865 104.569 21.5438 104.504 21.8011V21.8011ZM50.989 17.7485C48.4805 17.7485 46.6795 19.5496 46.6795 22.0584C46.6795 24.1812 48.1589 25.5321 50.4744 25.5321C51.5036 25.5321 52.4041 25.2748 53.3046 24.6315C53.3689 24.5672 53.3689 24.4385 53.3046 24.3742L52.1468 23.2163C52.0825 23.152 52.0181 23.152 51.9538 23.2163C51.4392 23.4736 50.989 23.6023 50.4744 23.6023C49.381 23.6023 48.8021 23.0876 48.8021 22.2514H54.0121C54.0764 22.2514 54.1407 22.1871 54.2051 22.1227C54.3337 21.6081 54.398 21.2222 54.398 20.7719C54.3337 18.9064 53.0473 17.7485 50.989 17.7485V17.7485ZM49.0594 20.6432C49.381 19.807 50.0242 19.421 50.9247 19.421C51.8895 19.421 52.3397 19.8713 52.3397 20.7075C52.2111 20.6432 49.188 20.6432 49.0594 20.6432V20.6432ZM23.974 8.87134H8.98712C8.72984 8.87134 8.6012 8.99999 8.6012 9.2573V11.3801C8.6012 13.7602 10.2736 15.0467 13.2967 15.0467H24.0383C25.1961 15.0467 26.0966 15.9473 26.0966 17.1052C26.0966 18.2631 25.1961 19.1637 24.0383 19.1637H11.9459C11.7529 19.1637 11.6243 19.2923 11.56 19.421L8.79416 30.6782C8.79416 30.8069 8.79416 30.9356 8.85848 30.9999C8.9228 31.0642 9.05145 31.1285 9.18009 31.1285H12.9751C14.3901 31.1285 15.0977 29.9706 15.2263 29.3274L16.3198 25.2748H23.974C28.4765 25.2748 32.2071 21.6081 32.2071 17.0409C32.2071 12.538 28.5408 8.87134 23.974 8.87134V8.87134Z" fill="#ED2F42"></path></g><defs><clipPath id="logo-pedidosya-processed_509470527_clip0_2456_3125"><rect width="98.7977" height="22.2572" fill="white" transform="translate(8.6012 8.87134)"></rect></clipPath></defs></svg>