<svg xmlns:xlink="http://www.w3.org/1999/xlink" width="116" height="40" viewBox="0 0 116 40" fill="none" xmlns="http://www.w3.org/2000/svg"><g clip-path="url(#logo-rappi-processed_174147064_clip0_2455_3111)" fill="none"><path fill-rule="evenodd" clip-rule="evenodd" d="M75.7287 17.1589C75.6414 17.6351 75.5035 18.185 75.3184 18.791C75.1324 19.397 74.894 20.0363 74.6129 20.6844C74.3073 21.3377 73.9904 21.949 73.6726 22.4997C73.3583 23.0452 73.044 23.5144 72.7428 23.8941C72.4486 24.2642 72.1753 24.5378 71.9326 24.7079C71.7492 24.836 71.6471 24.85 71.6122 24.85C71.5957 24.85 71.5824 24.8474 71.5685 24.841C71.5378 24.8271 71.4358 24.7586 71.3913 24.4332C71.3493 24.1351 71.3721 23.7431 71.4567 23.2686C71.5441 22.7802 71.6811 22.225 71.8671 21.6225C72.0504 21.0201 72.2888 20.3808 72.5743 19.7239C72.8572 19.0723 73.1662 18.4646 73.4945 17.9165C73.821 17.3692 74.1388 16.9053 74.44 16.537C74.7325 16.1774 75.0058 15.9082 75.252 15.7354C75.4362 15.6074 75.5375 15.5934 75.5724 15.5934C75.5901 15.5934 75.6031 15.596 75.6152 15.6023C75.6459 15.6156 75.7479 15.6847 75.7933 16.0101C75.8343 16.3083 75.8124 16.6941 75.7287 17.1589H75.7287ZM63.4724 17.1589C63.3851 17.6351 63.2472 18.185 63.0621 18.791C62.8753 19.4005 62.6369 20.0389 62.3566 20.6844C62.0502 21.3395 61.7333 21.9507 61.4163 22.4997C61.1012 23.0461 60.7877 23.5152 60.4865 23.8941C60.1923 24.2642 59.9199 24.5378 59.6754 24.7079C59.4921 24.836 59.3908 24.85 59.3559 24.85C59.3394 24.85 59.3262 24.8474 59.3122 24.8414C59.2815 24.8274 59.1795 24.7589 59.135 24.4336C59.0931 24.1363 59.1149 23.7451 59.2005 23.2689C59.2869 22.7813 59.4249 22.228 59.6108 21.6229C59.7942 21.0195 60.0325 20.3811 60.318 19.7242C60.6017 19.0709 60.9117 18.4631 61.2373 17.9168C61.5656 17.3687 61.8834 16.9047 62.1838 16.5373C62.4771 16.1777 62.7513 15.9076 62.9957 15.7357C63.179 15.6077 63.2812 15.5937 63.3161 15.5937C63.3338 15.5937 63.3468 15.5963 63.3589 15.6023C63.3896 15.6156 63.4925 15.6847 63.537 16.0101C63.5781 16.3083 63.5561 16.6941 63.4724 17.1589H63.4724ZM50.1929 17.0362C50.1388 17.5202 50.0341 18.0727 49.8813 18.6796C49.7276 19.2847 49.518 19.9214 49.257 20.5739C48.9968 21.2228 48.7201 21.8332 48.4328 22.3875C48.1517 22.9294 47.8679 23.3916 47.5877 23.7617C47.3153 24.1212 47.0595 24.3896 46.8264 24.5588C46.6544 24.6843 46.5583 24.6983 46.526 24.6983C46.5112 24.6983 46.498 24.6957 46.4841 24.6893C46.4527 24.6754 46.3444 24.6043 46.2885 24.2737C46.2362 23.9711 46.2318 23.5809 46.2737 23.1126C46.3173 22.6372 46.416 22.0909 46.5679 21.4893C46.7198 20.8868 46.9302 20.2492 47.1921 19.595C47.4558 18.9373 47.7334 18.3278 48.0172 17.7805C48.2966 17.2395 48.5812 16.772 48.8632 16.3905C49.1339 16.0222 49.3905 15.7504 49.6228 15.5811C49.7948 15.4557 49.8908 15.4417 49.924 15.4417C49.9388 15.4417 49.952 15.4443 49.9641 15.4506C49.9973 15.4645 50.1099 15.5383 50.1789 15.8733C50.24 16.1715 50.2444 16.5626 50.1922 17.037L50.1929 17.0362ZM77.0453 13.0144C77.687 13.0144 78.2388 13.2117 78.6858 13.6019C79.1171 13.9782 79.4253 14.5157 79.6008 15.1989C79.7711 15.861 79.806 16.6617 79.7056 17.5799C79.6051 18.4867 79.3415 19.5215 78.9198 20.6554C78.5226 21.7271 78.0668 22.6698 77.5674 23.4565C77.3256 23.8388 77.0767 24.1967 76.8244 24.5273C76.7921 24.5694 76.8404 24.6246 76.8864 24.5992C77.0331 24.5194 77.1789 24.4326 77.3229 24.3378C77.6512 24.1248 77.9664 23.895 78.2659 23.652C79.1014 22.9724 79.7082 22.0533 80.0033 21.0203C80.1797 20.3985 80.3752 19.782 80.5882 19.1742C80.9375 18.1736 81.3103 17.2396 81.697 16.3977C82.0812 15.5585 82.4007 14.9305 82.647 14.5298C82.9263 14.0737 83.3175 13.7896 83.8125 13.6844C84.2752 13.5862 84.7179 13.5932 85.1247 13.7036C85.5412 13.8176 85.8817 14.0246 86.1358 14.321C86.4125 14.6446 86.4728 15.0129 86.3086 15.3865C86.2598 15.5154 86.1314 15.8101 85.9271 16.2635C85.7219 16.7195 85.4914 17.2518 85.2234 17.8938C84.9659 18.5103 84.7013 19.1777 84.4376 19.8757C84.1801 20.5615 83.9784 21.2017 83.8387 21.7788C83.7025 22.34 83.6493 22.8066 83.6798 23.1653C83.7095 23.5082 83.8396 23.5082 83.9103 23.5082C84.0098 23.5082 84.1862 23.4608 84.4604 23.2363C84.724 23.017 85.0025 22.7531 85.2898 22.4479C85.577 22.1418 85.8529 21.8121 86.1078 21.4683C86.341 21.1552 86.5409 20.8781 86.7033 20.644C86.8447 20.4396 87.07 20.323 87.3205 20.323C87.5851 20.323 87.8418 20.4563 87.9754 20.6624C88.1054 20.8641 88.102 21.1044 87.964 21.3201C87.7911 21.5911 87.489 22.0454 87.0403 22.711C86.5959 23.3687 86.0642 24.0466 85.46 24.7271C84.8454 25.4173 84.174 26.0303 83.4624 26.5486C82.7142 27.095 81.9581 27.3712 81.2169 27.3712C80.5463 27.3712 80.0461 27.1379 79.7291 26.6767C79.4411 26.2557 79.2944 25.6909 79.2944 24.9981V24.8876C79.2961 24.8052 79.2001 24.7587 79.1364 24.8105C78.9958 24.9236 78.8509 25.0359 78.7033 25.1463C77.8319 25.7979 76.8261 26.3504 75.712 26.7898C74.7176 27.1827 73.6219 27.3817 72.4555 27.3817L72.218 27.3791L71.9796 27.3712C71.1851 27.3694 70.5958 27.1194 70.2265 26.6257C70.161 26.5389 70.1008 26.4495 70.0475 26.3574C70.0048 26.2837 69.8939 26.296 69.8694 26.3783C69.7498 26.779 69.6363 27.1658 69.5315 27.5359C69.3046 28.3313 69.1107 29.0197 68.9405 29.6406C68.7693 30.2632 68.6209 30.8306 68.4987 31.3296C68.3808 31.8102 68.2988 32.1996 68.2569 32.4881L68.2542 32.4988C68.1468 33.0452 67.7792 33.2372 67.4885 33.303C67.3593 33.3318 67.2249 33.3469 67.0886 33.3469C66.8424 33.3469 66.5823 33.2986 66.316 33.2048C65.9109 33.061 65.5468 32.8128 65.2325 32.4664C64.9068 32.1068 64.7418 31.6569 64.7418 31.129C64.7418 31.022 64.7689 30.7879 64.9776 29.9258C65.1338 29.29 65.3443 28.499 65.6053 27.5737C65.7817 26.9467 65.9825 26.2644 66.2051 25.5348C66.2312 25.4471 66.1318 25.3743 66.0567 25.426C65.2805 25.9566 64.4101 26.4153 63.4602 26.7897C62.4649 27.1826 61.37 27.3817 60.2036 27.3817C60.0464 27.3817 59.8858 27.378 59.7269 27.3711C58.9333 27.3693 58.3439 27.1194 57.9738 26.6256C57.9083 26.5388 57.8489 26.4502 57.7957 26.3573C57.752 26.2836 57.642 26.2968 57.6175 26.3782C57.4971 26.7798 57.3835 27.1674 57.2788 27.5358C57.0509 28.3338 56.8571 29.0231 56.6886 29.6405C56.5175 30.2632 56.3682 30.8306 56.2459 31.3296C56.1281 31.811 56.0469 32.2004 56.0041 32.488L56.0024 32.4987C55.895 33.0451 55.5265 33.2371 55.2358 33.3029C55.1066 33.3318 54.973 33.3467 54.8368 33.3467C54.5906 33.3467 54.3304 33.2985 54.0633 33.2047C53.6581 33.0609 53.295 32.8127 52.9806 32.4663C52.655 32.1067 52.49 31.6568 52.49 31.1289C52.49 31.021 52.516 30.7869 52.7257 29.9257C52.8829 29.2837 53.0933 28.4927 53.3526 27.5736C53.5063 27.0273 53.6765 26.445 53.8677 25.8162C53.8957 25.7215 53.7804 25.6496 53.7071 25.7171C53.3814 26.0153 53.0461 26.2933 52.7021 26.5476C51.9644 27.0939 51.2136 27.3711 50.4714 27.3711C49.8009 27.3711 49.2998 27.1378 48.9837 26.6765C48.8563 26.4905 48.7568 26.2756 48.6843 26.0344C48.6206 25.8196 48.3464 25.7538 48.191 25.916C47.9727 26.1441 47.7327 26.3519 47.4751 26.5352C47.1398 26.7737 46.7653 26.9737 46.3602 27.1298C45.9429 27.2894 45.4915 27.3709 45.0183 27.3709C44.3783 27.3709 43.8169 27.1754 43.3507 26.7886C42.8967 26.415 42.5606 25.8853 42.3501 25.2127C42.1459 24.5611 42.0707 23.7604 42.1266 22.8317C42.1825 21.9144 42.3903 20.8848 42.7448 19.7702C43.5 17.4585 44.4848 15.7423 45.6731 14.6662C46.8832 13.57 48.1107 13.014 49.3217 13.014C49.8342 13.014 50.2681 13.1175 50.6095 13.3209C50.9456 13.5226 51.2049 13.7892 51.3804 14.1137C51.4974 14.3321 51.5829 14.5662 51.6353 14.8153C51.6448 14.8592 51.7043 14.8679 51.7261 14.8286C51.7873 14.7181 51.8458 14.619 51.9007 14.5286C52.1801 14.0744 52.566 13.7902 53.0488 13.6841C53.5002 13.5859 53.942 13.592 54.3602 13.7027C54.7889 13.8167 55.1355 14.0245 55.3904 14.3209C55.6672 14.6445 55.7274 15.0129 55.5624 15.3865C55.5144 15.5136 55.3904 15.8012 55.1818 16.2634C54.9783 16.7159 54.7409 17.264 54.4781 17.8937C54.2179 18.5172 53.9533 19.1846 53.6923 19.8757C53.4338 20.5615 53.2322 21.2025 53.0934 21.7787C52.9572 22.3408 52.9039 22.8074 52.9345 23.1652C52.9642 23.5081 53.0943 23.5081 53.1641 23.5081C53.2646 23.5081 53.4409 23.4607 53.7142 23.2362C53.8652 23.1108 54.0224 22.9696 54.183 22.8144C54.8055 22.2119 55.2228 21.5542 55.5014 20.736C55.8715 19.6503 56.2609 18.5786 56.6608 17.5456C57.0877 16.4467 57.5042 15.4601 57.8988 14.613C58.1049 14.1745 58.4314 13.8789 58.8662 13.7369C59.2739 13.6036 59.6921 13.5755 60.1033 13.6536C60.5137 13.7325 60.8734 13.8965 61.172 14.142C61.3047 14.2508 61.4103 14.3683 61.4889 14.492C61.5097 14.5253 61.5343 14.5288 61.5631 14.5016C61.9158 14.1745 62.3052 13.8745 62.7252 13.6071C63.3398 13.2133 64.0357 13.0142 64.7935 13.0142C65.4343 13.0142 65.987 13.2116 66.4331 13.6018C66.8653 13.9789 67.1735 14.5156 67.349 15.1988C67.5192 15.86 67.5542 16.6616 67.4537 17.5798C67.3533 18.4857 67.0888 19.5214 66.668 20.6553C66.2698 21.7278 65.8141 22.6706 65.3147 23.4564C65.0729 23.8387 64.824 24.1965 64.5717 24.5271C64.5394 24.5692 64.5882 24.6245 64.6346 24.5991C64.7804 24.5193 64.9262 24.4324 65.0711 24.3377C65.306 24.1851 65.5338 24.0238 65.7539 23.8554C66.5903 23.2169 67.2145 22.3435 67.5472 21.349L67.6781 20.9605C68.071 19.7941 68.4866 18.6453 68.9127 17.5456C69.3405 16.445 69.7569 15.4584 70.1515 14.613C70.3567 14.1745 70.6824 13.8798 71.1189 13.7369C71.5266 13.6035 71.9448 13.5755 72.3561 13.6536C72.7664 13.7325 73.1252 13.8965 73.4238 14.1412C73.5566 14.2508 73.6622 14.3683 73.7408 14.492C73.7618 14.5253 73.7862 14.5288 73.815 14.5016C74.1677 14.1745 74.5571 13.8745 74.977 13.6071C75.5925 13.2133 76.2884 13.0142 77.0453 13.0142V13.0144ZM36.8891 7.55169C37.8093 7.55169 38.7313 7.65869 39.6305 7.86826C40.5359 8.08049 41.3575 8.40321 42.0708 8.82767C42.7928 9.25739 43.3856 9.79673 43.8326 10.4308C44.2884 11.0762 44.5189 11.8331 44.5189 12.6802C44.5189 13.5923 44.3163 14.4482 43.9165 15.2234C43.5201 15.9908 42.9744 16.6915 42.296 17.3063C41.6238 17.9166 40.8266 18.4551 39.9265 18.9059C39.1844 19.2777 38.396 19.5952 37.577 19.8504C37.5246 19.8669 37.5063 19.8942 37.5089 19.9468C37.5264 20.3502 37.5552 20.7492 37.5963 21.1334C37.6425 21.5745 37.7036 22.0042 37.7787 22.412C37.8521 22.8128 37.9411 23.203 38.0415 23.5722C38.1201 23.8581 38.2074 24.1361 38.3008 24.4001C38.3602 24.5685 38.4231 24.7333 38.4868 24.8877C38.6151 25.199 38.7566 25.4972 38.9068 25.7734C39.0543 26.0453 39.2141 26.3031 39.3817 26.5399C39.545 26.7706 39.7205 26.9872 39.9029 27.1853C40.0811 27.3783 40.2696 27.5554 40.4635 27.7133C40.652 27.8667 40.8511 28.0062 41.0545 28.1255C41.2527 28.243 41.4605 28.3447 41.6727 28.4289C41.8813 28.5113 42.097 28.578 42.3144 28.6262C42.5327 28.6745 42.757 28.7051 42.984 28.7201C43.2102 28.734 43.4459 28.7313 43.6807 28.7104C43.92 28.6896 44.1644 28.6508 44.4071 28.5938C44.656 28.5359 44.9092 28.4596 45.1615 28.3658C45.4199 28.2693 45.681 28.1518 45.9385 28.0194C46.0372 27.9685 46.1367 27.9141 46.2354 27.858C46.5567 27.6739 46.967 27.7616 47.1827 28.0597C47.3992 28.3579 47.3512 28.7701 47.0718 29.0121C46.9347 29.1305 46.7968 29.2463 46.6606 29.3568C46.3297 29.6251 45.9979 29.8742 45.674 30.0961C45.3667 30.3065 45.0541 30.503 44.745 30.6775C44.5905 30.7652 44.4281 30.8511 44.2631 30.9336C43.9462 31.0932 43.6257 31.2335 43.3088 31.351C42.9937 31.4676 42.6767 31.565 42.3676 31.6386C42.0594 31.7123 41.7486 31.7658 41.4457 31.7965C41.2291 31.8184 41.0126 31.8298 40.8013 31.8298C40.7158 31.8298 40.6302 31.8281 40.5447 31.8237C40.2513 31.8113 39.9597 31.7773 39.6768 31.722C39.5371 31.6948 39.3957 31.6615 39.2577 31.6229C39.1242 31.5869 38.9871 31.544 38.85 31.494C38.5872 31.3994 38.3262 31.2827 38.0765 31.1468C37.832 31.0135 37.591 30.8601 37.3623 30.6899C37.1772 30.5522 36.9956 30.4005 36.8236 30.24C36.6167 30.0471 36.415 29.8322 36.2238 29.6042C36.0352 29.3788 35.8545 29.135 35.6869 28.8798C35.5184 28.6255 35.3594 28.3537 35.2128 28.073C35.067 27.7924 34.9282 27.4942 34.8024 27.1873C34.6776 26.883 34.5614 26.5603 34.4558 26.2261C34.3519 25.8981 34.2568 25.5509 34.1729 25.1931C34.09 24.8361 34.0175 24.466 33.9573 24.0924C33.9032 23.7618 33.8578 23.4189 33.822 23.0708C33.8114 22.9655 33.6604 22.9515 33.6299 23.0542C33.4989 23.5085 33.3802 23.9487 33.2754 24.3697C33.1436 24.8976 33.0222 25.3782 32.9122 25.8096C32.8048 26.2323 32.7289 26.5726 32.6852 26.8208C32.5979 27.261 32.3072 27.539 31.8409 27.6294C31.4402 27.7083 31.0098 27.675 30.5663 27.5329C30.128 27.3917 29.7298 27.147 29.3815 26.8042C29.0165 26.4446 28.8315 25.993 28.8315 25.4606C28.8315 25.0274 28.9415 24.3425 29.1667 23.3682C29.3867 22.4167 29.7037 21.2889 30.1105 20.0146C30.5139 18.7509 31.0037 17.3574 31.5651 15.8753C32.047 14.6019 32.5883 13.3198 33.175 12.0552C33.3671 11.6413 33.7643 11.3563 34.2227 11.3036C35.259 11.1844 36.1583 11.2142 36.9205 11.3914C37.3797 11.4983 37.6259 11.9921 37.4339 12.4174C36.9423 13.5031 36.4892 14.5862 36.0841 15.6403C35.7567 16.4936 35.4424 17.3381 35.1455 18.1598C35.1168 18.2414 35.2005 18.3168 35.2791 18.2808C35.6746 18.1011 36.0649 17.8888 36.4464 17.6468C37.0715 17.2495 37.6408 16.7751 38.1393 16.2375C38.6352 15.6999 39.0421 15.0939 39.3485 14.4353C39.6506 13.7828 39.8043 13.0743 39.8043 12.3271C39.8043 11.3668 39.5354 10.6573 39.0054 10.2197C38.4685 9.77683 37.7124 9.55145 36.7572 9.55145C35.7401 9.55145 34.8103 9.79 33.9939 10.2609C33.1558 10.7433 32.4311 11.3361 31.8401 12.0236C31.2446 12.7164 30.7749 13.4566 30.4458 14.224C30.1192 14.9843 29.9534 15.6508 29.9534 16.2059C29.9534 16.6032 29.7412 16.89 29.3562 17.0136C29.0183 17.1224 28.6455 17.1066 28.2631 16.9654C27.8955 16.8303 27.555 16.5629 27.2503 16.1717C26.9439 15.7788 26.7885 15.2465 26.7885 14.5897C26.7885 14.0161 27.0085 13.3409 27.4607 12.5253C27.9008 11.7299 28.5521 10.9555 29.3946 10.2232C30.2362 9.4927 31.2979 8.85865 32.5534 8.33948C33.8158 7.8168 35.2747 7.55196 36.8891 7.55196L36.8891 7.55169ZM86.9748 6.94482C88.3831 6.94482 89.5242 8.07612 89.5242 9.47051C89.5242 10.8649 88.3831 11.9962 86.9748 11.9962C85.5665 11.9962 84.4254 10.8649 84.4254 9.47051C84.4254 8.07612 85.5665 6.94482 86.9748 6.94482V6.94482Z" fill="#FF441F"></path></g><defs><clipPath id="logo-rappi-processed_174147064_clip0_2455_3111"><rect width="64" height="27" fill="white" transform="translate(26 6.5)"></rect></clipPath></defs></svg>