<svg xmlns:xlink="http://www.w3.org/1999/xlink" width="116" height="40" viewBox="0 0 116 40" fill="none" xmlns="http://www.w3.org/2000/svg">
<path d="M42.5208 26.4271L42.5209 26.4271V26.4191L42.5209 19.8196L42.5209 19.8182C42.5202 19.5668 42.6192 19.3253 42.7961 19.1467C42.9707 18.9705 43.2072 18.8696 43.455 18.8653C43.7128 18.8765 43.9575 18.9828 44.1419 19.1637C44.3258 19.3443 44.4364 19.5865 44.4527 19.8435V26.4191C44.4527 29.2827 42.0335 31.6621 39.1253 31.663C37.7369 31.6547 36.4077 31.0994 35.4261 30.1175C34.4444 29.1355 33.8896 27.8061 33.8818 26.4177V19.8263C33.8894 19.573 33.9938 19.3322 34.1735 19.1534C34.353 18.9748 34.5941 18.8718 34.847 18.8653C35.1007 18.8686 35.3432 18.9709 35.5227 19.1504L35.8763 18.7968L35.5227 19.1504C35.7034 19.3311 35.8058 19.5755 35.8079 19.831V26.4171C35.8045 26.8534 35.8879 27.2861 36.0531 27.6899C36.2186 28.0945 36.463 28.462 36.772 28.7712C37.0809 29.0804 37.4483 29.325 37.8527 29.4908C38.2557 29.656 38.6874 29.7396 39.1228 29.7369C40.0106 29.746 40.8661 29.4036 41.5027 28.7845C42.1404 28.1642 42.5065 27.3166 42.5208 26.4271Z" stroke="#3E6BFD" fill="none"></path>
<path d="M59.2656 18.8653C59.5218 18.8703 59.766 18.9754 59.9457 19.1584C60.1274 19.3434 60.2282 19.593 60.2262 19.8523L60.2262 19.8564L60.2281 25.2873V25.2875V30.6933C60.2261 30.9485 60.1237 31.1927 59.9431 31.373C59.7637 31.5522 59.5215 31.6541 59.2681 31.6571C59.045 31.6509 58.8302 31.5704 58.6579 31.4282C58.484 31.2846 58.3635 31.0865 58.316 30.866L58.1549 30.118L57.5345 30.5659C56.5516 31.2757 55.37 31.6575 54.1577 31.6572L54.1551 31.6572C53.3447 31.6613 52.5421 31.4989 51.797 31.1799C51.0528 30.8614 50.3819 30.3935 49.8258 29.8052C48.691 28.5768 48.0671 26.962 48.0813 25.2896L48.0814 25.2896L48.0812 25.2782C48.0573 23.605 48.6825 21.9877 49.8256 20.7657L49.8257 20.7657L49.8289 20.7621C50.3787 20.1629 51.0473 19.6848 51.7921 19.3582C52.5365 19.0318 53.3406 18.8639 54.1534 18.8652C55.3683 18.8744 56.5496 19.2656 57.5299 19.9835L58.1662 20.4495L58.3161 19.6752C58.3595 19.4511 58.4782 19.2486 58.6525 19.1013C58.8246 18.9558 59.0406 18.8727 59.2656 18.8653ZM51.2137 28.4649L51.2194 28.4713L51.2252 28.4774C51.6037 28.874 52.0601 29.188 52.5657 29.3997C53.0699 29.6109 53.6121 29.7158 54.1586 29.708C54.702 29.7093 55.2403 29.6018 55.7415 29.3917C56.2442 29.181 56.6994 28.8715 57.0802 28.4815L57.0866 28.4749L57.0928 28.4681C57.8816 27.5987 58.3128 26.4634 58.3002 25.2897C58.3243 24.1121 57.8912 22.9708 57.092 22.1055C56.7219 21.6942 56.2688 21.3661 55.7625 21.1429C55.2573 20.9201 54.7106 20.8069 54.1586 20.8106C53.6034 20.8004 53.0527 20.9111 52.5446 21.135C52.0356 21.3593 51.5816 21.6917 51.2142 22.1091C50.4256 22.9776 50.0036 24.1174 50.0361 25.2898C50.0153 26.4584 50.4357 27.5922 51.2137 28.4649Z" stroke="#3E6BFD" fill="none"></path>
<path d="M64.6312 8.62398C64.8227 8.43278 65.0815 8.32429 65.352 8.32178C65.6256 8.32223 65.8881 8.42995 66.0832 8.62185C66.2778 8.81333 66.3898 9.07334 66.3951 9.34622V30.6448C66.3951 30.9189 66.2863 31.1818 66.0924 31.3756C65.8986 31.5694 65.6357 31.6783 65.3616 31.6783C65.0875 31.6783 64.8247 31.5694 64.6308 31.3756C64.437 31.1818 64.3281 30.9189 64.3281 30.6448V9.34418C64.331 9.07372 64.4398 8.81514 64.6312 8.62398Z" stroke="#3E6BFD" fill="none"></path>
<path d="M73.6821 19.3579C74.4265 19.0315 75.2307 18.8637 76.0435 18.8652C77.2584 18.8744 78.4397 19.2656 79.42 19.9835L80.0563 20.4495L80.2063 19.6752C80.2497 19.4511 80.3684 19.2486 80.5426 19.1013C80.7147 18.9558 80.9308 18.8728 81.1558 18.8653C81.412 18.8703 81.6561 18.9754 81.8358 19.1584C82.0175 19.3435 82.1184 19.593 82.1163 19.8523L82.1163 19.8564L82.1183 25.2873V25.2875V30.6933C82.1162 30.9485 82.0138 31.1927 81.8332 31.373C81.6538 31.5522 81.4116 31.6541 81.1583 31.6571C80.9351 31.6509 80.7204 31.5704 80.5481 31.4282C80.3741 31.2846 80.2536 31.0865 80.2061 30.866L80.045 30.118L79.4246 30.5659C78.4418 31.2757 77.2602 31.6575 76.0479 31.6572L76.0451 31.6572C75.2347 31.6615 74.4321 31.4992 73.687 31.1803C72.9428 30.8617 72.2719 30.3937 71.716 29.8053C70.5812 28.5768 69.9572 26.962 69.9714 25.2896L69.9715 25.2896L69.9714 25.2782C69.9475 23.605 70.5727 21.9877 71.7158 20.7657L71.7158 20.7657L71.7191 20.762C72.2688 20.1627 72.9373 19.6845 73.6821 19.3579ZM80.1622 25.7873H80.179L80.1902 25.2987C80.2171 24.1182 79.7846 22.9733 78.984 22.1055C78.6134 21.6943 78.1599 21.3663 77.6533 21.1431C77.1478 20.9204 76.6011 20.8071 76.0488 20.8106C75.4937 20.8004 74.9429 20.9111 74.4348 21.135C73.9258 21.3593 73.4718 21.6917 73.1043 22.1091C72.3158 22.9777 71.8937 24.1174 71.9263 25.2898C71.9054 26.4584 72.3258 27.5923 73.1039 28.4649L73.1095 28.4713L73.1154 28.4774C73.4939 28.874 73.9502 29.188 74.4559 29.3997C74.9601 29.6109 75.5023 29.7158 76.0489 29.708C76.5925 29.7091 77.1309 29.6015 77.6323 29.3915C78.1352 29.1809 78.5907 28.8716 78.972 28.4818L78.9793 28.4744L78.9862 28.4666C79.6584 27.7195 80.0682 26.7789 80.1622 25.7873Z" stroke="#3E6BFD" fill="none"></path>
<path d="M78.5689 9.70688C79.4275 9.14057 80.5107 9.37587 81.2127 9.96936C81.2119 9.96944 81.211 9.96951 81.2102 9.96959L81.2102 9.96948L81.1997 9.97068C80.5295 10.0475 79.9732 10.467 79.5262 10.9266C79.0766 11.3888 78.6702 11.9637 78.3157 12.4651L78.3086 12.4752L78.3084 12.4751L78.3008 12.4865L78.0799 12.8178L78.0737 12.8267L77.9775 12.9562L77.9714 12.9644L77.9657 12.9728C77.4784 13.6875 76.8829 14.3222 76.2005 14.8539C75.8818 15.0662 75.507 15.1792 75.1238 15.1783C74.7906 15.1723 74.4619 15.0996 74.1572 14.9646L73.9546 15.4218L74.1572 14.9646C73.9401 14.8685 73.7383 14.742 73.5577 14.5895L73.56 14.5893C74.2298 14.5112 74.7857 14.0915 75.2327 13.6316C75.6822 13.1692 76.0885 12.5944 76.443 12.093L76.4492 12.0843C76.4494 12.084 76.4495 12.0838 76.4497 12.0836C76.4813 12.0392 76.5105 11.9978 76.5385 11.9579C76.5879 11.8877 76.6338 11.8225 76.6829 11.7555L76.683 11.7556L76.6891 11.7469L76.6999 11.7314L76.7956 11.6001L76.8002 11.5938L76.8046 11.5873C77.2917 10.8728 77.8869 10.2384 78.5689 9.70688Z" stroke="#FF6766" fill="none"></path>
</svg>