<svg xmlns:xlink="http://www.w3.org/1999/xlink" width="15" height="15" viewBox="0 0 10 7" fill="none" xmlns="http://www.w3.org/2000/svg">
<path d="M7.76567 2.81506e-07C8.43778 3.40264e-07 8.98274 0.222223 9.40055 0.666667C9.80018 1.12821 10 1.7265 10 2.46154C10 3.4188 9.70027 4.30769 9.10082 5.12821C8.50136 5.96581 7.75658 6.58974 6.86648 7L6.703 6.69231C7.08447 6.4188 7.42053 6.06838 7.71117 5.64103C8.00182 5.21368 8.21072 4.68376 8.33787 4.05128L7.76567 3.92308C7.12988 3.78632 6.63942 3.52992 6.29428 3.15385C5.93097 2.79487 5.74932 2.35897 5.74932 1.84615C5.74932 1.29915 5.94914 0.854701 6.34877 0.51282C6.73025 0.170941 7.20254 2.32276e-07 7.76567 2.81506e-07ZM2.01635 -2.21116e-07C2.68847 -1.62358e-07 3.23342 0.222222 3.65123 0.666666C4.05086 1.12821 4.25068 1.7265 4.25068 2.46154C4.25068 3.4188 3.95095 4.30769 3.3515 5.12821C2.75204 5.96581 2.00727 6.58974 1.11717 7L0.953677 6.69231C1.33515 6.4188 1.67121 6.06838 1.96185 5.64103C2.2525 5.21368 2.4614 4.68376 2.58856 4.05128L2.01635 3.92308C1.38056 3.78632 0.8901 3.52991 0.544959 3.15385C0.181652 2.79487 -5.47943e-07 2.35897 -5.03111e-07 1.84615C-4.5529e-07 1.29914 0.199818 0.854701 0.599455 0.51282C0.980927 0.17094 1.45322 -2.70346e-07 2.01635 -2.21116e-07Z" fill="#E0FF00"></path>
</svg>