<svg xmlns:xlink="http://www.w3.org/1999/xlink" xmlns="http://www.w3.org/2000/svg" width="167" height="68" viewBox="0 0 167 68" fill="none">
<path d="M90.1579 28.4872C89.2557 28.4872 88.5471 28.7045 87.8381 29.1384C87.8381 26.8223 87.8381 24.7235 87.9029 24L83.5846 24.8682V25.3025L84.0356 25.3748C84.6151 25.5194 84.8094 25.881 84.937 26.75C85.0669 28.4872 85.0018 37.752 84.937 39.2723C86.0971 39.5619 87.3219 39.7793 88.5467 39.7793C91.9625 39.7793 94.0247 37.3905 94.0247 33.6264C94.0247 30.6591 92.3492 28.4872 90.1579 28.4872ZM88.6755 38.9826C88.4176 38.9826 88.0949 38.9826 87.9021 38.9107C87.8374 37.8975 87.7734 33.6264 87.8374 29.8628C88.2241 29.7177 88.4816 29.6454 88.8043 29.6454C90.223 29.6454 90.9964 31.5272 90.9964 33.8429C90.996 36.7392 90.0291 38.9826 88.6755 38.9826ZM67.343 24.2893H56V24.9405L56.6446 25.0128C57.482 25.1574 57.8047 25.7363 57.9331 27.1116C58.127 29.7173 58.0622 34.4227 57.9331 36.6657C57.8043 38.0413 57.4824 38.6929 56.6446 38.7644L56 38.9099V39.4888H63.2826V38.9099L62.5093 38.7644C61.6715 38.6925 61.3492 38.0413 61.2204 36.6657C61.1557 35.7243 61.0913 34.2041 61.0913 32.3227L62.638 32.395C63.6049 32.395 64.0556 33.2636 64.2492 34.4938H64.8294V29.3562H64.2492C64.0553 30.5868 63.6049 31.4549 62.638 31.4549L61.0917 31.5277C61.0917 29.0665 61.1561 26.7504 61.2208 25.3752H63.4762C65.2168 25.3752 66.119 26.6054 66.7632 28.7773L67.4078 28.5599L67.343 24.2893Z" fill="#808080"/>
<path d="M70.7317 27.9836C73.9711 27.9836 75.5906 30.5219 75.5906 33.881C75.5906 37.091 73.7765 39.7793 70.5372 39.7793C67.2982 39.7793 65.6787 37.2406 65.6787 33.881C65.6787 30.6711 67.4924 27.9836 70.7317 27.9836ZM70.5372 28.7303C69.1118 28.7303 68.7232 30.9698 68.7232 33.881C68.7232 36.7176 69.3711 39.0318 70.667 39.0318C72.1559 39.0318 72.5454 36.7922 72.5454 33.881C72.5454 31.0444 71.8982 28.7303 70.5372 28.7303ZM94.7008 33.956C94.7008 30.8952 96.385 27.9836 99.6891 27.9836C102.409 27.9836 103.705 30.2982 103.705 33.3585H97.6805C97.6155 36.1206 98.7815 38.1364 101.114 38.1364C102.151 38.1364 102.669 37.8385 103.317 37.3156L103.576 37.6885C102.928 38.7335 101.503 39.7793 99.6891 39.7793C96.7737 39.7789 94.7008 37.3902 94.7008 33.956ZM97.6805 32.5377L100.725 32.4627C100.725 30.9698 100.531 28.7303 99.4299 28.7303C98.3289 28.7303 97.7449 30.8202 97.6805 32.5377ZM111.416 28.5811C110.638 28.2073 109.602 27.9836 108.436 27.9836C106.039 27.9836 104.549 29.6256 104.549 31.5669C104.549 33.5081 105.649 34.3289 107.206 34.9264C108.825 35.5976 109.278 36.1206 109.278 37.0164C109.278 37.9122 108.695 38.733 107.659 38.733C106.428 38.733 105.521 37.9122 104.808 35.6722L104.355 35.8222L104.42 39.1068C105.197 39.4797 106.622 39.7789 107.853 39.7789C110.38 39.7789 112 38.2851 112 35.9714C112 34.4035 111.287 33.5081 109.602 32.761C107.788 31.9402 107.141 31.4177 107.141 30.4469C107.141 29.4765 107.725 28.8044 108.502 28.8044C109.668 28.8044 110.445 29.6256 111.029 31.6415L111.482 31.4923L111.416 28.5811ZM84.012 28.2823C82.911 27.5365 80.9672 27.909 79.9309 30.5969L79.9952 27.984L75.6553 28.9544V29.4023L76.1087 29.4769C76.6923 29.5519 76.9508 29.9248 77.0159 30.8957C77.1453 32.6873 77.0806 35.8231 77.0159 37.3906C76.9508 38.2855 76.6923 38.7335 76.1087 38.8085L75.6553 38.8835V39.4805H81.6798V38.8835L80.9024 38.8085C80.2549 38.7335 80.0603 38.2855 79.9952 37.3906C79.8658 35.9718 79.8658 33.1352 79.9309 31.3436C80.2545 30.8206 81.6798 30.3732 82.9753 31.3436L84.012 28.2823Z" fill="#808080"/>
</svg>