<svg xmlns:xlink="http://www.w3.org/1999/xlink" width="24" height="24" viewBox="0 0 24 24" fill="none" xmlns="http://www.w3.org/2000/svg" gift-cards-gift-svg=""> <path d="M20.25 6.75001H16.9718C17.4599 6.15448 17.7004 5.39407 17.6434 4.62618C17.5864 3.8583 17.2363 3.14173 16.6656 2.62481C16.0949 2.10789 15.3472 1.83021 14.5775 1.84924C13.8077 1.86827 13.0747 2.18256 12.5303 2.72704C12.3131 2.95335 12.134 3.21332 12 3.49686C11.8659 3.21331 11.6868 2.95333 11.4696 2.727C10.9252 2.18252 10.1922 1.86825 9.42243 1.84923C8.65266 1.83021 7.90506 2.1079 7.33437 2.62483C6.76368 3.14175 6.4136 3.85832 6.35661 4.62621C6.29961 5.39409 6.54006 6.1545 7.02818 6.75001H3.75C3.35231 6.75046 2.97104 6.90864 2.68984 7.18985C2.40863 7.47105 2.25045 7.85232 2.25 8.25001V11.25C2.25045 11.6477 2.40863 12.029 2.68984 12.3102C2.97104 12.5914 3.35231 12.7496 3.75 12.75V18.75C3.75045 19.1477 3.90864 19.529 4.18984 19.8102C4.47105 20.0914 4.85231 20.2496 5.25 20.25H18.75C19.1477 20.2496 19.529 20.0914 19.8102 19.8102C20.0914 19.529 20.2495 19.1477 20.25 18.75V12.75C20.6477 12.7496 21.029 12.5914 21.3102 12.3102C21.5914 12.029 21.7495 11.6477 21.75 11.25V8.25001C21.7495 7.85232 21.5914 7.47105 21.3102 7.18985C21.029 6.90864 20.6477 6.75046 20.25 6.75001V6.75001ZM13.5909 3.7877C13.7302 3.64836 13.8956 3.53781 14.0776 3.46238C14.2596 3.38695 14.4546 3.34811 14.6517 3.34808C14.8487 3.34806 15.0438 3.38684 15.2258 3.46223C15.4078 3.53761 15.5732 3.64811 15.7125 3.78742C15.8518 3.92673 15.9623 4.09212 16.0377 4.27414C16.1131 4.45616 16.1519 4.65126 16.1519 4.84827C16.1519 5.04529 16.113 5.24037 16.0376 5.42238C15.9622 5.60438 15.8516 5.76975 15.7123 5.90903C15.2491 6.37226 13.9099 6.63239 12.782 6.71803C12.8676 5.59001 13.1277 4.25089 13.5909 3.7877ZM8.28763 3.7877C8.56917 3.50683 8.95062 3.34909 9.34831 3.34908C9.746 3.34908 10.1275 3.50681 10.409 3.78768C10.8723 4.25092 11.1324 5.59015 11.218 6.71801C10.09 6.63234 8.75089 6.37222 8.28772 5.90903C8.00684 5.6275 7.8491 5.24606 7.84908 4.84838C7.84906 4.45071 8.00678 4.06926 8.28763 3.7877ZM20.25 11.25H12.75V18C12.75 18.1989 12.671 18.3897 12.5303 18.5303C12.3897 18.671 12.1989 18.75 12 18.75C11.8011 18.75 11.6103 18.671 11.4697 18.5303C11.329 18.3897 11.25 18.1989 11.25 18V11.25H3.75V8.25001H11.25V11.25H12.75V8.25001H20.25L20.2509 11.25L20.25 11.25Z" fill="url(&quot;#gift-btn-processed_127459482_paint0_linear_160_1442&quot;)"></path><defs><linearGradient id="gift-btn-processed_127459482_paint0_linear_160_1442" x1="2.25" y1="10.2153" x2="21.75" y2="10.2153" gradientUnits="userSpaceOnUse"><stop stop-color="#EA90FF"></stop><stop offset="1" stop-color="#83AEFB"></stop></linearGradient><style>.ch-force-dark-mode svg[gift-cards-gift-svg] path {--__icon-color__:url(#gift-btn-processed_127459482_paint0_linear_160_1442);}.ch-force-light-mode svg[gift-cards-gift-svg] path {--__icon-color__:var(--icon-color);}</style><linearGradient id="gift-btn-processed_127459482_paint0_linear_160_1442" x1="2.25" y1="10.2153" x2="21.75" y2="10.2153" gradientUnits="userSpaceOnUse"><stop stop-color="#EA90FF"></stop><stop offset="1" stop-color="#83AEFB"></stop></linearGradient><linearGradient id="gift-btn-processed_127459482_paint0_linear_160_1442" x1="2.25" y1="10.2153" x2="21.75" y2="10.2153" gradientUnits="userSpaceOnUse"><stop stop-color="#EA90FF"></stop><stop offset="1" stop-color="#83AEFB"></stop></linearGradient></defs></svg>