<svg xmlns:xlink="http://www.w3.org/1999/xlink" width="15" height="15" viewBox="0 0 10 7" fill="none" xmlns="http://www.w3.org/2000/svg">
<path d="M2.23433 7C1.56222 7 1.01726 6.77778 0.599455 6.33333C0.199818 5.87179 0 5.2735 0 4.53846C0 3.5812 0.299728 2.69231 0.899183 1.87179C1.49864 1.03419 2.24342 0.410256 3.13352 0L3.297 0.307691C2.91553 0.581196 2.57947 0.931624 2.28883 1.35897C1.99818 1.78632 1.78928 2.31624 1.66213 2.94872L2.23433 3.07692C2.87012 3.21367 3.36058 3.47008 3.70572 3.84615C4.06903 4.20513 4.25068 4.64103 4.25068 5.15385C4.25068 5.70085 4.05086 6.1453 3.65123 6.48718C3.26975 6.82906 2.79746 7 2.23433 7ZM7.98365 7C7.31154 7 6.76658 6.77778 6.34877 6.33333C5.94914 5.87179 5.74932 5.2735 5.74932 4.53846C5.74932 3.5812 6.04905 2.69231 6.6485 1.87179C7.24796 1.03419 7.99273 0.410256 8.88283 0L9.04632 0.307691C8.66485 0.581196 8.32879 0.931624 8.03815 1.35897C7.7475 1.78632 7.5386 2.31624 7.41144 2.94872L7.98365 3.07692C8.61944 3.21367 9.1099 3.47008 9.45504 3.84615C9.81835 4.20513 10 4.64103 10 5.15385C10 5.70085 9.80018 6.1453 9.40055 6.48718C9.01907 6.82906 8.54678 7 7.98365 7Z" fill="#E0FF00"></path>
</svg>