<svg xmlns:xlink="http://www.w3.org/1999/xlink" width="55" height="55" viewBox="0 0 55 55" fill="none" xmlns="http://www.w3.org/2000/svg">
                  <path d="M20.2196 35.0217C18.2964 40.7913 10.6038 40.7913 10.6038 40.7913C10.6038 40.7913 10.6038 33.0985 16.3733 31.1754" stroke="#121212" stroke-width="2px" stroke-linecap="round" stroke-linejoin="round" fill="none"></path>
                  <path d="M37.5281 21.5596L25.9891 33.0986L18.2964 25.406L29.8354 13.8669C34.2048 9.49753 38.5741 9.54014 40.4375 9.81817C40.7244 9.86096 40.99 9.99477 41.1951 10.1998C41.4003 10.405 41.5341 10.6705 41.5769 10.9575C41.8549 12.8209 41.8975 17.1902 37.5281 21.5596Z" stroke="#121212" stroke-width="2px" stroke-linecap="round" stroke-linejoin="round" fill="none"></path>
                  <path d="M35.6049 23.4829V34.4586C35.6049 34.6372 35.5697 34.8141 35.5014 34.9791C35.4331 35.144 35.3329 35.294 35.2066 35.4202L29.7089 40.9179C29.5349 41.0919 29.3169 41.2155 29.0781 41.2754C28.8393 41.3352 28.5888 41.3292 28.3533 41.2579C28.1177 41.1865 27.9059 41.0526 27.7404 40.8703C27.575 40.6881 27.4621 40.4643 27.4139 40.223L25.989 33.0988" stroke="#121212" stroke-width="2px" stroke-linecap="round" stroke-linejoin="round" fill="none"></path>
                  <path d="M27.9121 15.7901H16.9364C16.7578 15.7901 16.581 15.8253 16.416 15.8937C16.251 15.962 16.1011 16.0622 15.9748 16.1884L10.4771 21.6861C10.3031 21.8601 10.1796 22.0782 10.1197 22.3169C10.0598 22.5557 10.0659 22.8061 10.1372 23.0417C10.2085 23.2773 10.3425 23.4891 10.5247 23.6546C10.7069 23.82 10.9307 23.9329 11.1721 23.9811L18.2963 25.406" stroke="#121212" stroke-width="2px" stroke-linecap="round" stroke-linejoin="round" fill="none"></path>
                  </svg>