<svg xmlns:xlink="http://www.w3.org/1999/xlink" xmlns="http://www.w3.org/2000/svg" width="168" height="68" viewBox="0 0 168 68" fill="none">
<path fill-rule="evenodd" clip-rule="evenodd" d="M114.205 29.3332L114.602 28.9752L114.746 29.2934C114.927 29.4921 115.071 29.5319 115.251 29.373L116.368 28.5782C115.972 29.5718 115.323 30.2476 114.422 30.6056L114.133 30.6454C113.989 30.6056 113.917 30.5658 113.917 30.4865L114.133 30.0488L114.205 29.7311V29.3332H114.205ZM115.972 27.9812L116.152 27.8223L116.368 27.8621V27.9019C116.441 28.021 116.441 28.1007 116.368 28.1405L115.215 29.0544C115.107 29.0544 115.035 29.0544 114.998 28.9747L114.962 28.8955C114.926 28.8159 114.926 28.776 114.998 28.6968L115.972 27.9812ZM114.133 28.9752L114.061 28.7765C113.953 28.4587 113.808 28.2201 113.592 28.0613L112.908 27.9019C112.691 28.021 112.475 28.1803 112.367 28.4583C112.223 28.776 112.223 29.0947 112.295 29.4523L112.655 30.2471V30.3662H112.367C111.826 30.048 111.393 29.5315 111.033 28.8955C110.672 28.2591 110.456 27.5439 110.312 26.7884C110.276 26.749 110.276 26.6694 110.276 26.6694H108.978C109.049 28.0145 109.407 29.3222 110.023 30.4857L111.718 33.6262C111.826 34.1825 111.753 34.8189 111.501 35.5743L108.689 44.0421H110.348L113.664 37.4026L117.09 44.1217H118.675L115.611 35.1774C115.359 34.5405 115.287 33.905 115.395 33.388L115.791 32.3148L116.836 30.6848C117.377 29.7705 117.666 28.7366 117.81 27.5443H116.585C117.306 27.1071 118.099 26.8681 119 26.7495L117.883 25C117.306 26.2326 116.584 27.1071 115.792 27.7032L114.133 28.9752ZM73.3602 39.1123C73.865 38.3174 74.6942 37.8801 75.7755 37.7213V41.5769C75.4873 42.332 74.8744 42.6896 74.0091 42.6896C73.4324 42.6896 73.072 42.451 72.8914 41.9744L72.8191 40.702C72.8195 40.1058 73.0359 39.5894 73.3602 39.1123ZM67.7007 25.1593L64.3121 26.0737V27.1071H65.7542V43.0082H64.5284V44.0425H69.972V42.929H68.6021V25.1593H67.7007ZM95.2794 28.3396L93.1884 27.4248L91.0251 30.645L91.9984 31.0823L95.2794 28.3396ZM62.3652 27.6634C61.5721 27.266 60.4186 27.0274 58.8321 26.9079C56.4525 26.8283 54.4702 27.4647 52.8119 28.8959C50.9733 30.4861 50 32.7118 50 35.4951C50 38.3178 50.901 40.5829 52.6316 42.2134C54.2539 43.6836 56.1286 44.4001 58.3641 44.4001C61.1037 44.4001 62.9784 43.684 64.0601 42.1735L63.0146 40.9414C62.6903 41.3388 62.1135 41.7363 61.3923 42.054C60.5631 42.4116 59.6978 42.6103 58.8325 42.6103C57.6068 42.6103 56.4529 42.0939 55.4078 41.1003C54.0737 39.7482 53.389 37.9996 53.389 35.7337C53.389 33.3482 53.8935 31.4801 54.9394 30.1683C55.8766 28.9362 57.1384 28.3795 58.7245 28.3795C60.7433 28.3795 61.9329 29.2938 62.3656 31.242H63.7719V26.8287H62.3656V27.6634H62.3652ZM95.4235 33.2287V33.9842H97.0454V42.9286H95.7121V44.0421H101.48V42.9286H99.9295V35.5743C101.012 34.4215 102.021 33.9045 102.885 33.9444C103.463 33.9842 103.823 34.1829 103.859 34.6202V42.9281H102.561V44.0416H108.329V42.9281H106.779V35.5743C106.779 33.3084 105.877 32.1555 104.112 32.1949C102.849 31.8771 101.408 32.5923 99.785 34.3414V32.3139H98.5958L95.4235 33.2287ZM89.2584 33.9842H90.8449V42.9286H89.5474V44.0421H95.3152V42.9286H93.6925V32.3148H92.4664L89.258 33.2292V33.9842H89.2584ZM84.5722 32.3148H83.3826L80.1743 33.2292V33.9846H81.7965V42.929H80.4985V44.0425H86.2302V42.929H84.6802V35.5743C85.1851 34.6994 85.8698 34.2621 86.6986 34.302C87.5643 34.302 87.997 34.5803 88.0327 35.0579H88.8258V32.1953C87.3123 31.639 85.8698 32.275 84.5718 34.0638V32.3148H84.5722ZM74.2259 31.9568L71.0171 32.4737V34.9379H72.0265C72.2067 33.8253 72.8557 33.269 74.0091 33.269C75.1987 33.269 75.7755 33.905 75.8116 35.1375V36.4887L72.8195 37.6819C71.0893 37.9602 70.224 39.2318 70.224 41.4185C70.224 42.8095 70.6209 43.6836 71.4136 44.1217L72.8918 44.3603C74.3699 44.3603 75.3793 43.7641 75.92 42.6108V43.9628H79.9937V42.9286H78.5873V34.8591C78.5877 32.8711 77.1457 31.8775 74.2259 31.9568Z" fill="#808080"/>
</svg>