<svg xmlns:xlink="http://www.w3.org/1999/xlink" xmlns="http://www.w3.org/2000/svg" width="167" height="68" viewBox="0 0 167 68" fill="none">
<path d="M52.6078 31.0998C52.1509 31.0998 51.7478 30.9109 51.4521 30.6411V41.2718H53.7634V30.6411C53.4678 30.9109 53.0647 31.0998 52.6078 31.0998Z" fill="#808080"/>
<path d="M52.6074 29.9122C53.3198 29.9122 53.8974 29.3203 53.8974 28.5902C53.8974 27.86 53.3198 27.2681 52.6074 27.2681C51.8949 27.2681 51.3174 27.86 51.3174 28.5902C51.3174 29.3203 51.8949 29.9122 52.6074 29.9122Z" fill="#808080"/>
<path d="M55.6709 30.56H57.8747V32.1249L57.9284 32.1789C58.2778 31.5853 58.7347 31.1266 59.2991 30.7758C59.8634 30.4251 60.5084 30.2632 61.1803 30.2632C62.336 30.2632 63.2497 30.56 63.8947 31.1806C64.5666 31.7741 64.8891 32.6915 64.8891 33.9057V41.2446H62.5778V34.5263C62.551 33.6898 62.3628 33.0693 62.0403 32.6915C61.7178 32.3138 61.2072 32.1249 60.5084 32.1249C60.1053 32.1249 59.7559 32.2058 59.4603 32.3408C59.1378 32.4757 58.8959 32.6915 58.6809 32.9343C58.4659 33.1772 58.3047 33.501 58.1703 33.8247C58.0359 34.1755 57.9822 34.5263 57.9822 34.931V41.2446H55.6709C55.6709 41.2446 55.6709 30.56 55.6709 30.56Z" fill="#808080"/>
<path d="M65.6416 30.56H67.3616V29.6697C67.3616 28.9951 67.4422 28.4555 67.6035 28.0238C67.7647 27.5921 67.9797 27.2683 68.2485 27.0525C68.5173 26.8366 68.8398 26.6747 69.1623 26.5938C69.5116 26.5128 69.861 26.4858 70.2373 26.4858C70.9898 26.4858 71.5273 26.5398 71.8498 26.6207V28.4555C71.6885 28.4015 71.5542 28.3745 71.366 28.3745C71.2585 28.3745 71.0435 28.3476 70.8285 28.3476C70.506 28.3476 70.2373 28.4285 70.0223 28.5634C69.8073 28.7253 69.6998 29.0221 69.6998 29.4538V30.56H71.6617V32.3138H69.6998V41.2447H67.3885V32.3138H65.6685L65.6416 30.56Z" fill="#808080"/>
<path d="M77.2515 41.5414C76.4183 41.5414 75.6658 41.4065 75.0208 41.1097C74.3758 40.8399 73.8114 40.4352 73.3545 39.9495C72.8977 39.4639 72.5483 38.8703 72.3064 38.1687C72.0645 37.4672 71.957 36.7118 71.957 35.9023C71.957 35.0929 72.0645 34.3374 72.3064 33.6359C72.5483 32.9343 72.8977 32.3408 73.3545 31.8551C73.8114 31.3694 74.3489 30.9647 75.0208 30.6949C75.6658 30.4251 76.4183 30.2632 77.2515 30.2632C78.0846 30.2632 78.8371 30.3981 79.4821 30.6949C80.1271 30.9647 80.6915 31.3694 81.1484 31.8551C81.6053 32.3408 81.9546 32.9343 82.1965 33.6359C82.4384 34.3374 82.5459 35.0659 82.5459 35.9023C82.5459 36.7387 82.4384 37.4942 82.1965 38.1687C81.9546 38.8703 81.6053 39.4639 81.1484 39.9495C80.6915 40.4352 80.1271 40.8399 79.4821 41.1097C78.8371 41.4065 78.0846 41.5414 77.2515 41.5414ZM77.2515 39.6797C77.7621 39.6797 78.219 39.5718 78.5952 39.3559C78.9715 39.1401 79.294 38.8433 79.5359 38.4925C79.7777 38.1418 79.9659 37.737 80.0734 37.2784C80.1809 36.8197 80.2346 36.361 80.2346 35.9023C80.2346 35.4436 80.1809 34.9849 80.0734 34.5263C79.9659 34.0676 79.7777 33.6628 79.5359 33.3121C79.294 32.9613 78.9715 32.6645 78.5952 32.4487C78.219 32.2328 77.7621 32.1249 77.2515 32.1249C76.7408 32.1249 76.2839 32.2328 75.9077 32.4487C75.5314 32.6645 75.2089 32.9613 74.9671 33.3121C74.7252 33.6628 74.5371 34.0676 74.4296 34.5263C74.3221 34.9849 74.2683 35.4436 74.2683 35.9023C74.2683 36.361 74.3221 36.8197 74.4296 37.2784C74.5371 37.737 74.7252 38.1418 74.9671 38.4925C75.2089 38.8433 75.5314 39.1401 75.9077 39.3559C76.2839 39.5718 76.7408 39.6797 77.2515 39.6797Z" fill="#808080"/>
<path d="M83.9165 26.4858H86.2278V31.9361H86.2815C86.4428 31.6663 86.6309 31.4504 86.8728 31.2346C87.1147 31.0187 87.3566 30.8568 87.6253 30.6949C87.8941 30.56 88.1897 30.4521 88.4853 30.3712C88.7809 30.2902 89.1034 30.2632 89.3991 30.2632C90.2322 30.2632 90.931 30.3981 91.5491 30.6949C92.1672 30.9917 92.6779 31.3965 93.081 31.9091C93.4841 32.4218 93.7797 33.0423 93.9947 33.7169C94.2097 34.4184 94.2904 35.1469 94.2904 35.9293C94.2904 36.6578 94.2097 37.3324 94.0216 38.0069C93.8335 38.6815 93.5647 39.275 93.1885 39.7877C92.8122 40.3003 92.3553 40.732 91.791 41.0288C91.2266 41.3526 90.5547 41.4875 89.7753 41.4875C89.4259 41.4875 89.0766 41.4605 88.7003 41.4066C88.3509 41.3526 88.0016 41.2717 87.6791 41.1368C87.3566 41.0019 87.0609 40.813 86.7922 40.5971C86.5234 40.3813 86.3084 40.0845 86.1203 39.7337H86.0934V41.1907H83.8896L83.9165 26.4858ZM91.9791 35.9293C91.9791 35.4437 91.9253 34.985 91.791 34.5263C91.6566 34.0676 91.4953 33.6629 91.2535 33.3121C91.0116 32.9614 90.716 32.6646 90.3397 32.4757C89.9635 32.2599 89.5603 32.1519 89.0766 32.1519C88.1091 32.1519 87.3566 32.5027 86.8728 33.1772C86.389 33.8788 86.1203 34.7961 86.1203 35.9293C86.1203 36.469 86.174 36.9546 86.3084 37.4403C86.4428 37.899 86.6309 38.3037 86.8997 38.6275C87.1684 38.9513 87.4641 39.2211 87.8134 39.41C88.1628 39.5988 88.5928 39.7067 89.0497 39.7067C89.5872 39.7067 90.0172 39.5988 90.3935 39.383C90.7697 39.1671 91.0653 38.8703 91.3072 38.5196C91.5491 38.1688 91.7103 37.7641 91.8178 37.3324C91.9253 36.8467 91.9791 36.388 91.9791 35.9293Z" fill="#808080"/>
<path d="M104.396 38.8702C104.396 39.1669 104.422 39.3558 104.503 39.4907C104.584 39.6256 104.718 39.6796 104.933 39.6796C105.014 39.6796 105.094 39.6796 105.175 39.6796C105.282 39.6796 105.39 39.6526 105.497 39.6256V41.2715C105.417 41.2985 105.309 41.3255 105.175 41.3524C105.041 41.3794 104.906 41.4064 104.772 41.4334C104.637 41.4604 104.503 41.4874 104.369 41.4874C104.234 41.5143 104.127 41.5143 104.019 41.5143C103.536 41.5143 103.159 41.4064 102.837 41.2175C102.514 41.0287 102.326 40.6779 102.219 40.1922C101.762 40.6509 101.197 40.9747 100.526 41.1906C99.8537 41.4064 99.2087 41.4874 98.5905 41.4874C98.1068 41.4874 97.6768 41.4334 97.2199 41.2985C96.7899 41.1636 96.4136 40.9747 96.0643 40.7319C95.7418 40.489 95.473 40.1653 95.2849 39.7605C95.0968 39.3558 94.9893 38.8971 94.9893 38.3845C94.9893 37.71 95.0968 37.1973 95.3386 36.7656C95.5805 36.3609 95.8761 36.0371 96.2793 35.7943C96.6555 35.5514 97.0855 35.3895 97.5693 35.2816C98.053 35.1737 98.5368 35.0928 99.0205 35.0388C99.4505 34.9578 99.8268 34.9039 100.23 34.8499C100.606 34.8229 100.956 34.769 101.224 34.661C101.52 34.5801 101.735 34.4452 101.923 34.2833C102.084 34.1214 102.165 33.8516 102.165 33.5008C102.165 33.2041 102.084 32.9612 101.95 32.7454C101.816 32.5565 101.627 32.3946 101.412 32.3137C101.197 32.2057 100.982 32.1518 100.714 32.0978C100.445 32.0708 100.203 32.0438 99.9881 32.0438C99.343 32.0438 98.8055 32.1788 98.3755 32.4486C97.9455 32.7184 97.7305 33.1501 97.6768 33.7437H95.3655C95.4193 33.0422 95.5805 32.4756 95.8493 32.0169C96.1449 31.5582 96.4943 31.2074 96.9243 30.9106C97.3543 30.6408 97.8649 30.4519 98.4293 30.344C98.9937 30.2361 99.5581 30.1821 100.122 30.1821C100.633 30.1821 101.144 30.2361 101.654 30.344C102.165 30.4519 102.595 30.6408 102.998 30.8836C103.401 31.1265 103.724 31.4503 103.966 31.855C104.207 32.2597 104.342 32.7184 104.342 33.285V38.8702H104.396ZM102.084 35.9022C101.735 36.145 101.305 36.2799 100.794 36.3339C100.284 36.3879 99.7731 36.4418 99.2624 36.5497C99.0205 36.6037 98.7787 36.6577 98.5637 36.7386C98.3218 36.8196 98.1337 36.9275 97.9455 37.0624C97.7574 37.1973 97.623 37.3592 97.5424 37.575C97.4349 37.7909 97.3812 38.0607 97.3812 38.3575C97.3812 38.6273 97.4618 38.8432 97.5962 39.032C97.7574 39.2209 97.9187 39.3558 98.1337 39.4637C98.3487 39.5717 98.5637 39.6526 98.8324 39.6796C99.0743 39.7336 99.3162 39.7336 99.5043 39.7336C99.7731 39.7336 100.042 39.7066 100.337 39.6256C100.633 39.5447 100.929 39.4368 101.171 39.2749C101.439 39.113 101.654 38.8971 101.842 38.6543C102.031 38.4115 102.111 38.0877 102.111 37.71V35.9022H102.084Z" fill="#808080"/>
<path d="M108.078 36.523C108.078 36.9277 108.132 37.3324 108.239 37.7102C108.347 38.0879 108.535 38.4387 108.75 38.7355C108.992 39.0323 109.26 39.2481 109.61 39.437C109.959 39.5989 110.389 39.7068 110.873 39.7068C111.545 39.7068 112.082 39.5719 112.512 39.2751C112.915 38.9783 113.238 38.5466 113.426 37.953H115.63C115.495 38.5196 115.307 39.0592 115.012 39.5179C114.716 39.9766 114.367 40.3544 113.937 40.6781C113.507 40.9749 113.05 41.2178 112.539 41.3797C112.029 41.5415 111.464 41.6225 110.9 41.6225C110.067 41.6225 109.341 41.4876 108.696 41.2178C108.051 40.948 107.513 40.5432 107.083 40.0576C106.653 39.5719 106.304 38.9783 106.089 38.2768C105.874 37.5753 105.767 36.8198 105.767 36.0103C105.767 35.2549 105.874 34.5264 106.116 33.8518C106.358 33.1773 106.68 32.5567 107.137 32.0441C107.567 31.5314 108.105 31.1267 108.723 30.8029C109.341 30.5061 110.04 30.3442 110.846 30.3442C111.679 30.3442 112.405 30.5331 113.077 30.8839C113.722 31.2346 114.286 31.6933 114.716 32.2869C115.146 32.8535 115.469 33.5281 115.657 34.2835C115.845 35.039 115.899 35.8215 115.818 36.6039H108.078V36.523ZM113.48 34.9581C113.453 34.5803 113.372 34.2296 113.238 33.8788C113.104 33.5281 112.942 33.2313 112.7 32.9884C112.485 32.7456 112.217 32.5297 111.894 32.3678C111.572 32.206 111.222 32.125 110.819 32.125C110.416 32.125 110.04 32.206 109.717 32.3409C109.395 32.4758 109.099 32.6916 108.857 32.9345C108.615 33.1773 108.427 33.5011 108.293 33.8248C108.158 34.1756 108.078 34.5533 108.051 34.9311L113.48 34.9581Z" fill="#808080"/>
</svg>