<svg xmlns:xlink="http://www.w3.org/1999/xlink" xmlns="http://www.w3.org/2000/svg" width="167" height="68" viewBox="0 0 167 68" fill="none">
<path d="M94.2375 38.9383C94.1591 38.9228 94.0146 38.8882 93.9165 38.8611C93.8184 38.8341 93.6254 38.7995 93.4878 38.7844C93.3501 38.7692 93.1253 38.7164 92.9883 38.667C92.4168 38.4606 92.1327 38.3388 92.1327 38.3001C92.1327 38.2773 92.0845 38.2589 92.0257 38.2589C91.9668 38.2589 91.8597 38.2157 91.7877 38.1629C91.7157 38.1102 91.5013 37.9684 91.3113 37.8478C89.8322 36.9095 88.8741 35.2216 89.0195 33.8103C89.1272 32.7648 89.2943 32.2925 89.8062 31.5863C89.9673 31.364 90.1433 31.1158 90.1972 31.0349C90.3112 30.8637 91.817 29.7094 91.9262 29.7094C91.9668 29.7094 92.1342 29.6409 92.2982 29.5572C93.019 29.1893 93.4327 29.1097 94.8262 29.0703C95.4131 29.0534 95.7002 29.0646 95.7002 29.1035C95.7002 29.1353 95.8094 29.1614 95.9429 29.1614C96.1773 29.1614 97.1234 29.4758 97.6103 29.7155C97.9313 29.8736 98.1572 29.8206 98.3408 29.5442C98.4757 29.341 98.7011 29.2527 98.793 29.367C98.8519 29.4402 98.8738 32.5296 98.8159 32.6003C98.7562 32.6734 98.5453 32.6876 98.2929 32.6356C98.166 32.6094 98.1239 32.5387 98.057 32.239C97.974 31.8679 97.7237 31.259 97.6152 31.1645C97.5823 31.1359 97.5553 31.076 97.5553 31.0315C97.5553 30.9002 96.9157 30.2133 96.636 30.0443C96.1052 29.7236 95.833 29.6544 95.1144 29.6576C94.3038 29.6611 93.9738 29.7519 93.507 30.0992C93.0097 30.4692 92.6553 31.0442 92.4636 31.792C91.9587 33.7617 92.2346 36.4756 93.0393 37.4547C93.3145 37.7895 93.8088 38.1176 94.2016 38.226C94.7433 38.3756 95.7473 38.3321 96.2714 38.1363C96.7678 37.9509 97.0481 37.7723 97.4124 37.4096C97.7347 37.0888 98.0821 36.416 98.1624 35.9571C98.2519 35.4466 98.2934 35.4001 98.6432 35.4196L98.9467 35.4365L98.9429 35.8206C98.9407 36.0319 98.8957 36.3278 98.8427 36.4783C98.726 36.8092 98.4047 37.4536 98.3373 37.4916C98.3106 37.5066 98.2365 37.593 98.1726 37.6834C98.1087 37.7738 97.9517 37.937 97.8237 38.046C97.5674 38.2642 96.6275 38.7521 96.4634 38.7521C96.4064 38.7521 96.2397 38.7906 96.0929 38.8377C95.8261 38.9233 94.5225 38.994 94.2375 38.9383H94.2375ZM112.789 38.8867C111.367 38.5453 110.739 38.2619 109.881 37.5738C108.855 36.7504 108.287 35.8436 108.045 34.6418C107.81 33.4735 108.251 32.0955 109.195 31.0466C109.592 30.6059 110.569 29.8672 110.908 29.7519C111.02 29.7138 111.112 29.6641 111.112 29.6413C111.112 29.6185 111.147 29.5998 111.19 29.5998C111.233 29.5998 111.354 29.5549 111.458 29.5C112.169 29.1252 114.011 28.9188 114.836 29.1214C115.021 29.1667 115.19 29.1891 115.214 29.1712C115.237 29.1534 115.391 29.1909 115.556 29.2547C115.722 29.3185 116.01 29.4284 116.198 29.499C116.806 29.7276 117.868 30.4058 118.317 30.8519C118.93 31.4618 119.463 32.4111 119.6 33.1385C119.919 34.8374 119.297 36.368 117.79 37.5913C117.129 38.1278 116.013 38.645 115.108 38.8351C114.501 38.9625 113.223 38.9909 112.789 38.8867ZM114.752 38.212C115.988 37.763 116.489 36.5548 116.483 34.039C116.476 31.4405 115.965 30.1704 114.762 29.7616C114.363 29.6259 113.287 29.6091 113.07 29.7351C112.994 29.7794 112.878 29.8163 112.812 29.8173C112.622 29.8203 112.086 30.2521 111.866 30.5795C111.44 31.2122 111.188 32.5035 111.185 34.0664C111.183 34.9175 111.332 36.1485 111.493 36.6197C111.823 37.586 112.456 38.1739 113.324 38.3202C113.732 38.389 114.405 38.338 114.752 38.212ZM35.6051 38.7028C35.5561 38.6906 35.4924 38.6537 35.4636 38.6205C35.3788 38.523 35.4014 38.2222 35.4982 38.1609C35.5472 38.1298 35.8789 38.1061 36.2353 38.1083C36.5917 38.1107 36.9208 38.0945 36.9666 38.0728C37.0685 38.0244 37.086 30.0571 36.9845 29.934C36.9381 29.8776 36.7422 29.8554 36.2542 29.851C35.8874 29.8477 35.5472 29.8254 35.4982 29.8014C35.3991 29.7529 35.3793 29.4466 35.4683 29.3389C35.5131 29.2847 36.1854 29.2729 38.5888 29.2841L41.6522 29.2984L41.6738 29.5557C41.6953 29.8122 41.6946 29.8131 41.4361 29.8504C41.2936 29.871 40.9402 29.876 40.6509 29.8616C40.3335 29.8459 40.0952 29.8583 40.0501 29.8931C39.9629 29.96 39.9419 38.0905 40.029 38.1003C40.5091 38.1542 41.0963 38.1313 41.613 38.0386C42.3591 37.9048 42.4655 37.8662 43.0183 37.5295C43.7152 37.1049 44.0894 36.3972 44.1212 35.4433C44.1345 35.0444 44.1957 34.9704 44.5124 34.9704C44.9028 34.9704 44.8807 34.7813 44.8398 37.7784L44.8273 38.6955L40.2607 38.7101C37.7491 38.718 35.6541 38.7148 35.6051 38.7026L35.6051 38.7028ZM45.713 38.6969C45.5227 38.6716 45.5033 38.6478 45.4837 38.4164L45.4624 38.1636L45.8277 38.1366C46.5398 38.0841 46.9323 37.748 47.3891 36.7997C47.7844 35.9792 48.1093 35.3258 48.2442 35.0801C48.3187 34.9445 48.4285 34.7349 48.4882 34.6143C48.626 34.336 49.2331 33.1274 49.6996 32.2029C49.8973 31.8111 50.102 31.4128 50.1545 31.3178C50.207 31.2228 50.2499 31.1288 50.2499 31.1089C50.2499 31.0889 50.3247 30.9447 50.4161 30.7883C50.5074 30.632 50.6409 30.3684 50.7127 30.2026C50.7845 30.0368 50.9167 29.7717 51.0064 29.6134L51.1696 29.3257H51.7356C52.3463 29.3257 52.3753 29.3377 52.5338 29.6546C52.5866 29.76 52.7005 29.9697 52.7869 30.1204C52.8733 30.2711 53.0614 30.6287 53.205 30.915C53.3485 31.2014 53.4952 31.485 53.5309 31.5453C53.5666 31.6056 53.6963 31.8522 53.819 32.0933C53.9417 32.3344 54.0846 32.5934 54.1366 32.6688C54.1886 32.7441 54.457 33.2374 54.733 33.7648C55.9143 36.0227 56.7241 37.5317 56.8552 37.7192C56.9111 37.7992 56.9569 37.9031 56.9569 37.9502C56.9569 38.0948 57.2138 38.152 57.7932 38.1366L58.3482 38.1218V38.3958V38.6699L57.9558 38.6972C57.7399 38.7122 56.3517 38.7179 54.8708 38.7097L52.1783 38.6947L52.1339 38.5589C52.1095 38.4843 52.1087 38.3645 52.1322 38.2927C52.1721 38.1706 52.2177 38.1598 52.8482 38.1235C53.2516 38.1003 53.5341 38.0592 53.5527 38.0211C53.5951 37.934 52.7596 36.3034 52.5862 36.1351C52.5329 36.0833 52.0414 36.0666 50.5702 36.0666C48.3126 36.0666 48.4434 36.0351 48.1856 36.6421C48.0959 36.8531 47.9614 37.13 47.8865 37.2574C47.7873 37.4264 47.7631 37.5499 47.7971 37.7133C47.8617 38.0234 48.0584 38.111 48.7033 38.117L49.2154 38.1217L49.2371 38.3826C49.2519 38.5598 49.229 38.6519 49.1658 38.6698C49.0356 38.7066 45.9669 38.7307 45.713 38.6969L45.713 38.6969ZM52.1857 35.3942C52.2241 35.3415 52.1488 35.1425 51.9712 34.8267C51.8207 34.5592 51.4787 33.8964 51.2113 33.3538C50.9438 32.8113 50.6944 32.3365 50.6571 32.2989C50.5342 32.1749 50.405 32.227 50.3177 32.4359C50.2099 32.6937 49.4877 34.1194 49.3531 34.3403C49.1303 34.706 48.8942 35.2159 48.8942 35.3316C48.8942 35.3993 48.9344 35.4673 48.9834 35.4829C49.0325 35.4986 49.7598 35.503 50.5996 35.4932C51.8562 35.4784 52.1371 35.4609 52.1857 35.3942V35.3942ZM76.2179 38.6726C76.1214 38.5984 76.134 38.2383 76.2358 38.1601C76.2829 38.1239 76.4515 38.0933 76.6104 38.092C76.9549 38.0892 77.2805 37.9632 77.5237 37.7381C77.7076 37.5679 77.784 37.4377 78.2945 36.4228C78.4613 36.0913 78.625 35.7966 78.6583 35.7679C78.6915 35.7393 78.7188 35.6711 78.7188 35.6165C78.7188 35.5618 78.7501 35.4743 78.7883 35.4219C78.8911 35.2813 79.1658 34.7513 79.5051 34.0389C79.6702 33.6922 79.8659 33.3052 79.9399 33.1787C80.0139 33.0523 80.0745 32.9317 80.0745 32.9108C80.0745 32.8899 80.2714 32.4877 80.512 32.0172C81.0517 30.962 81.0258 31.0119 81.2414 30.6136C81.3393 30.4328 81.5224 30.069 81.6483 29.8053L81.8772 29.3257H82.4654C83.0839 29.3257 83.152 29.3495 83.2501 29.5997C83.2797 29.6751 83.3627 29.8354 83.4346 29.956C83.5065 30.0766 83.7725 30.5698 84.0257 31.052C84.2789 31.5343 84.573 32.0892 84.6794 32.2851C84.9674 32.8159 84.9652 32.8117 85.3171 33.4908C85.4967 33.8375 85.674 34.1704 85.7111 34.2307C85.7482 34.2909 85.8416 34.4667 85.9187 34.6211C85.9957 34.7757 86.1202 35.01 86.1953 35.1418C86.2704 35.2737 86.4053 35.5295 86.495 35.7104C86.5848 35.8912 86.6998 36.1132 86.7507 36.2036C86.8015 36.294 86.9748 36.6146 87.1357 36.9161C87.2966 37.2175 87.4754 37.5451 87.5329 37.6441C87.5905 37.7431 87.6376 37.8596 87.6376 37.9031C87.6376 38.0616 87.938 38.1417 88.4938 38.1316L89.0289 38.1217L89.0505 38.41L89.0722 38.6983L85.9825 38.684L82.8928 38.6698L82.8704 38.4604C82.8357 38.1374 82.9398 38.082 83.5304 38.1084C84.355 38.1454 84.4038 38.1061 84.1368 37.6217C83.9515 37.2854 83.903 37.194 83.7479 36.8886C83.5275 36.4548 83.4226 36.2604 83.3633 36.1762C83.3144 36.1067 82.9983 36.0917 81.3222 36.0794C79.1279 36.0632 79.1344 36.0623 79.0351 36.4148C79.0083 36.5096 78.9276 36.6859 78.8556 36.8064C78.4517 37.4829 78.429 37.8324 78.775 38.0429C78.9371 38.1417 79.0335 38.1563 79.3691 38.1334C79.5894 38.1184 79.8115 38.1259 79.8625 38.15C79.9646 38.1985 79.9732 38.5776 79.8739 38.6538C79.7881 38.7197 76.3025 38.7375 76.2179 38.6725L76.2179 38.6726ZM82.915 35.3712C82.9273 35.3051 82.7748 34.9487 82.5761 34.579C82.3775 34.2093 82.215 33.8848 82.215 33.8578C82.215 33.8309 82.1691 33.7311 82.1131 33.6361C82.057 33.5411 81.8724 33.1867 81.7028 32.8486C81.5332 32.5104 81.3581 32.2329 81.3136 32.232C81.2401 32.2296 80.8593 32.7746 80.8593 32.8811C80.8593 32.9057 80.8144 32.9976 80.7595 33.0851C80.7047 33.1726 80.4139 33.7209 80.1135 34.3036C79.6716 35.1604 79.5837 35.3784 79.6536 35.4431C79.7257 35.5098 80.0031 35.5205 81.3165 35.5072C82.8767 35.4915 82.893 35.4901 82.915 35.3712ZM64.4801 38.5668C64.4567 38.4951 64.4481 38.3656 64.4609 38.2791C64.4838 38.1255 64.4948 38.1217 64.9163 38.1187C65.4302 38.1149 65.6612 38.0081 65.8533 37.685C65.9738 37.4825 65.9827 37.2342 65.9827 34.068V30.6684L65.8228 30.4387C65.622 30.15 65.2566 29.9329 64.9012 29.8909C64.7504 29.8734 64.5901 29.8363 64.545 29.8092C64.453 29.7538 64.434 29.4326 64.5167 29.3298C64.5573 29.2794 65.115 29.2634 66.775 29.2649L68.9794 29.2672L69.2154 29.4738C69.3452 29.5875 69.5663 29.8166 69.7067 29.9828C70.2698 30.6496 70.4818 30.8905 70.5657 30.9591C70.6518 31.0294 71.1216 31.5477 71.2627 31.728C71.3019 31.7782 71.4182 31.9057 71.5211 32.0113C71.6239 32.1169 71.945 32.4712 72.2346 32.7987C72.5241 33.1262 72.8573 33.4986 72.9751 33.6263C73.0928 33.7539 73.2506 33.9299 73.3259 34.0173C73.8619 34.6404 73.9727 34.7517 74.0572 34.7517C74.2084 34.7517 74.1958 30.4812 74.0438 30.2556C73.8914 30.0291 73.4208 29.8569 72.9394 29.8513L72.5469 29.8468L72.5254 29.5591L72.5038 29.2714L74.1129 29.2665C74.9979 29.2637 75.8184 29.2616 75.9361 29.2616C76.0538 29.2616 76.1822 29.2639 76.2215 29.2665C76.2607 29.2693 76.2928 29.3921 76.2928 29.5396C76.2928 29.8266 76.23 29.879 75.9316 29.8408C75.6871 29.8095 75.1458 30.0399 74.955 30.2564L74.7945 30.4386V34.5682V38.6977H74.2295C73.9188 38.6977 73.6132 38.6825 73.5504 38.6641C73.4876 38.6456 73.1928 38.3558 72.8953 38.0202C72.5978 37.6845 72.2614 37.3112 72.1476 37.1906C71.8042 36.8265 71.2983 36.2373 71.2983 36.2014C71.2983 36.1829 71.1897 36.065 71.0569 35.9394C70.9241 35.8137 70.5667 35.4273 70.2627 35.0807C69.9587 34.7341 69.6901 34.4381 69.6658 34.423C69.6414 34.408 69.4289 34.1737 69.1935 33.9024C68.3861 32.9723 67.3531 31.8198 67.3022 31.7924C67.2742 31.7774 67.1996 31.6911 67.1365 31.6006C67.0734 31.5102 66.9568 31.3746 66.8774 31.2992C66.7549 31.1831 66.7222 31.1747 66.6621 31.2444C66.6175 31.2963 66.5909 32.4591 66.5903 34.3951C66.5893 37.1794 66.6006 37.4847 66.7125 37.6926C66.8752 37.9947 67.1438 38.1111 67.7225 38.1304C68.2155 38.1468 68.3046 38.194 68.2687 38.4203C68.2565 38.4976 68.2428 38.5916 68.2384 38.6292C68.2321 38.6821 67.8076 38.6977 66.3765 38.6977H64.5227L64.4801 38.5673L64.4801 38.5668ZM100.552 38.5609C100.474 38.4022 100.569 38.1516 100.711 38.1453C100.761 38.143 101.033 38.143 101.315 38.1491C102.217 38.1622 102.122 38.6557 102.122 33.9845C102.122 29.2935 102.238 29.8194 101.199 29.8194C100.675 29.8194 100.55 29.8034 100.543 29.7372C100.538 29.692 100.528 29.6241 100.521 29.5865C100.514 29.5488 100.53 29.4686 100.556 29.4083C100.603 29.3017 100.684 29.298 103.578 29.2713L106.552 29.2439L106.59 29.3606C106.611 29.4248 106.618 29.5481 106.605 29.6346L106.581 29.792L105.889 29.8194C105.508 29.8344 105.165 29.8714 105.127 29.9016C105.085 29.9355 105.051 31.4868 105.038 33.9649C105.021 37.1989 105.035 37.9901 105.11 38.0596C105.18 38.1247 105.371 38.1495 105.892 38.1613L106.581 38.177V38.4237V38.6703L103.601 38.6846L100.62 38.6989L100.552 38.5613L100.552 38.5609ZM120.722 38.6617C120.64 38.5992 120.667 38.2133 120.756 38.1712C120.802 38.1496 120.988 38.1278 121.17 38.1228C121.351 38.1179 121.599 38.0689 121.721 38.0139C122.181 37.8051 122.169 37.9044 122.172 34.1011C122.174 32.1055 122.147 30.6 122.109 30.5224C121.941 30.1832 121.461 29.8991 120.994 29.8631C120.785 29.8469 120.78 29.8393 120.78 29.5501V29.2536L123.028 29.2634C125.066 29.2726 125.284 29.2822 125.367 29.3681C125.605 29.6144 126.948 31.1195 127.2 31.4227C127.355 31.6106 127.548 31.8218 127.628 31.892C127.707 31.9622 128.029 32.3121 128.343 32.6695C128.657 33.027 129.198 33.6417 129.545 34.0355C129.892 34.4292 130.221 34.7514 130.276 34.7514C130.361 34.7514 130.377 34.4094 130.376 32.573C130.376 30.5383 130.367 30.3834 130.242 30.2257C130.075 30.0148 129.677 29.8665 129.211 29.841C129.014 29.8302 128.821 29.7973 128.783 29.768C128.707 29.7097 128.699 29.4157 128.771 29.3266C128.799 29.2914 129.491 29.2711 130.659 29.2711C132.675 29.2711 132.589 29.2563 132.589 29.5976C132.589 29.7605 132.428 29.9057 132.31 29.8497C132.172 29.784 131.591 29.9433 131.325 30.1202L131.054 30.2998L131.016 34.4849C130.995 36.7866 130.971 38.6761 130.963 38.6836C130.954 38.6911 130.678 38.6975 130.349 38.6975C129.752 38.6975 129.751 38.6975 129.565 38.5093C129.462 38.4058 129.378 38.3044 129.378 38.284C129.378 38.2636 129.256 38.1325 129.108 37.9926C128.862 37.7609 128.323 37.1618 128.236 37.0241C128.216 36.9929 128.03 36.7833 127.821 36.5583C127.613 36.3332 127.34 36.0311 127.215 35.8868C126.714 35.3087 125.825 34.3198 125.471 33.9468C125.265 33.7295 125.097 33.5355 125.097 33.5156C125.097 33.4957 125.005 33.3896 124.893 33.2797C124.674 33.0647 123.768 32.0522 123.422 31.636C123.166 31.3274 122.971 31.1594 122.918 31.2001C122.897 31.217 122.879 32.6631 122.879 34.4142C122.879 38.0214 122.853 37.8529 123.431 38.0492C123.655 38.1252 123.866 38.1531 124.122 38.1403L124.49 38.122V38.3961V38.6701L122.63 38.6849C121.607 38.6931 120.748 38.6825 120.722 38.6621V38.6617Z" fill="#808080"/>
</svg>